<svg width="641.720215" height="49.617188" viewBox="0 0 641.72 49.6172" fill="none" xmlns="http://www.w3.org/2000/svg" xmlns:xlink="http://www.w3.org/1999/xlink">
	<desc>
			Created with Pixso.
	</desc>
	<defs/>
	<g opacity="0.400000">
		<path id="Vector" d="M617.22 49.61C610.94 49.61 604.67 47.23 599.89 42.45C590.34 32.89 590.34 17.35 599.89 7.79C604.52 3.16 610.68 0.62 617.22 0.62C623.77 0.62 629.92 3.16 634.55 7.79C644.1 17.35 644.1 32.89 634.55 42.45C629.78 47.22 623.5 49.61 617.22 49.61ZM601.18 41.16C610.02 50 624.41 50 633.26 41.16C642.1 32.31 642.1 17.92 633.26 9.08C628.97 4.79 623.28 2.44 617.22 2.44C611.15 2.44 605.46 4.8 601.17 9.08C592.33 17.92 592.33 32.31 601.17 41.16L601.18 41.16Z" fill="#9DADF2" fill-opacity="1.000000" fill-rule="nonzero"/>
		<path id="Vector" d="M616.9 34.28C616.98 34.5 617.19 34.62 617.41 34.62C617.48 34.62 617.55 34.6 617.62 34.58C619.35 33.85 620.93 32.73 622.17 31.33C622.37 31.11 622.35 30.76 622.12 30.55C621.9 30.35 621.55 30.37 621.35 30.6C620.21 31.88 618.78 32.91 617.2 33.56C616.92 33.68 616.78 34.01 616.9 34.28L616.9 34.28Z" fill="#9DADF2" fill-opacity="1.000000" fill-rule="nonzero"/>
		<path id="Vector" d="M626.56 16.65L617.42 12.99C617.29 12.94 617.14 12.94 617.01 12.99L607.87 16.65C607.66 16.73 607.53 16.93 607.53 17.16L607.53 23.7C607.54 29.74 611.36 35.2 617.03 37.28C617.09 37.3 617.15 37.31 617.21 37.31C617.28 37.31 617.34 37.3 617.4 37.28C623.08 35.2 626.89 29.74 626.9 23.7L626.9 17.16C626.9 16.93 626.77 16.73 626.56 16.65ZM625.8 23.7C625.79 29.2 622.34 34.2 617.22 36.17C612.1 34.2 608.64 29.2 608.63 23.7L608.63 17.53L617.22 14.1L625.8 17.53L625.8 23.7Z" fill="#9DADF2" fill-opacity="1.000000" fill-rule="nonzero"/>
		<path id="Vector" d="M613.4 17.51C613.27 17.45 613.12 17.45 612.98 17.51L610.8 18.38C610.59 18.46 610.46 18.66 610.46 18.89L610.46 21.21C610.46 21.51 610.71 21.76 611.01 21.76C611.31 21.76 611.56 21.51 611.56 21.21L611.56 19.26L613.39 18.53C613.53 18.47 613.63 18.37 613.69 18.23C613.75 18.1 613.75 17.95 613.69 17.81C613.63 17.67 613.53 17.57 613.4 17.51L613.4 17.51Z" fill="#9DADF2" fill-opacity="1.000000" fill-rule="nonzero"/>
		<path id="Vector" d="M631.13 11.2C627.42 7.48 622.47 5.44 617.21 5.44C611.96 5.44 607.02 7.49 603.3 11.2C595.63 18.88 595.63 31.36 603.3 39.04C607.14 42.88 612.17 44.79 617.21 44.79C622.26 44.79 627.29 42.87 631.13 39.04C638.8 31.37 638.8 18.88 631.13 11.2ZM628.41 23.7C628.43 30.68 623.96 36.79 617.31 38.91C617.25 38.93 617.18 38.93 617.12 38.91C610.46 36.79 606 30.68 606.02 23.7L606.02 15.98C606.02 15.85 606.1 15.73 606.22 15.68L617.1 11.33C617.13 11.32 617.17 11.31 617.21 11.31C617.26 11.31 617.3 11.32 617.33 11.33L628.21 15.69C628.33 15.73 628.41 15.85 628.41 15.98L628.41 23.71L628.41 23.7Z" fill="#9DADF2" fill-opacity="1.000000" fill-rule="nonzero"/>
		<path id="Vector" d="M554.64 49.53C541.13 49.53 530.15 38.54 530.15 25.04C530.15 11.54 541.14 0.55 554.64 0.55C568.14 0.55 579.13 11.54 579.13 25.04C579.13 38.54 568.14 49.53 554.64 49.53ZM554.64 2.18C542.03 2.18 531.78 12.44 531.78 25.04C531.78 37.65 542.03 47.9 554.64 47.9C567.24 47.9 577.5 37.65 577.5 25.04C577.5 12.44 567.24 2.18 554.64 2.18Z" fill="#FFFFFF" fill-opacity="1.000000" fill-rule="nonzero"/>
		<path id="Vector" d="M562.58 9.75C562.46 9.75 562.34 9.72 562.22 9.66C559.85 8.49 557.3 7.89 554.64 7.89C551.98 7.89 549.43 8.49 547.05 9.66C546.74 9.82 546.37 9.76 546.12 9.51L541.91 5.3C541.73 5.12 541.65 4.87 541.68 4.62C541.71 4.37 541.85 4.15 542.07 4.02C545.86 1.74 550.21 0.55 554.64 0.55C559.08 0.55 563.43 1.75 567.22 4.02C567.43 4.15 567.58 4.37 567.61 4.62C567.64 4.87 567.55 5.12 567.38 5.3L563.17 9.51C563.01 9.66 562.8 9.75 562.59 9.75L562.58 9.75ZM554.64 6.26C557.35 6.26 559.96 6.83 562.41 7.94L565.46 4.9C562.15 3.11 558.43 2.18 554.64 2.18C550.85 2.18 547.13 3.11 543.82 4.9L546.86 7.94C549.31 6.83 551.93 6.26 554.64 6.26Z" fill="#FFFFFF" fill-opacity="1.000000" fill-rule="nonzero"/>
		<path id="Vector" d="M554.64 49.53C550.2 49.53 545.85 48.33 542.06 46.06C541.85 45.93 541.7 45.71 541.67 45.46C541.64 45.21 541.73 44.96 541.9 44.78L546.11 40.57C546.36 40.32 546.74 40.26 547.05 40.42C549.42 41.59 551.97 42.18 554.63 42.18C557.29 42.18 559.84 41.59 562.21 40.42C562.53 40.26 562.9 40.32 563.15 40.57L567.36 44.78C567.54 44.96 567.62 45.21 567.59 45.46C567.56 45.71 567.42 45.93 567.2 46.06C563.41 48.33 559.06 49.53 554.63 49.53L554.64 49.53ZM543.82 45.18C547.13 46.96 550.85 47.9 554.64 47.9C558.42 47.9 562.14 46.96 565.46 45.18L562.41 42.13C559.96 43.25 557.35 43.82 554.64 43.82C551.93 43.82 549.31 43.25 546.86 42.13L543.82 45.18Z" fill="#FFFFFF" fill-opacity="1.000000" fill-rule="nonzero"/>
		<path id="Vector" d="M574.96 38.01C574.74 38.01 574.53 37.93 574.38 37.77L570.17 33.56C569.93 33.32 569.86 32.93 570.02 32.63C571.19 30.25 571.79 27.7 571.79 25.04C571.79 22.38 571.19 19.83 570.02 17.46C569.86 17.14 569.93 16.76 570.17 16.52L574.38 12.31C574.56 12.13 574.81 12.05 575.06 12.08C575.31 12.11 575.53 12.26 575.66 12.47C577.94 16.26 579.14 20.61 579.14 25.05C579.14 29.48 577.94 33.83 575.66 37.62C575.53 37.84 575.31 37.98 575.06 38.01C575.02 38.01 574.99 38.01 574.96 38.01L574.96 38.01ZM571.73 32.81L574.78 35.86C576.56 32.54 577.5 28.82 577.5 25.04C577.5 21.25 576.56 17.53 574.78 14.22L571.73 17.26C572.85 19.71 573.41 22.33 573.41 25.04C573.41 27.75 572.85 30.36 571.73 32.81Z" fill="#FFFFFF" fill-opacity="1.000000" fill-rule="nonzero"/>
		<path id="Vector" d="M534.32 38.01C534.28 38.01 534.25 38.01 534.22 38C533.97 37.97 533.75 37.83 533.62 37.61C531.35 33.82 530.15 29.47 530.15 25.04C530.15 20.6 531.35 16.25 533.62 12.46C533.75 12.25 533.97 12.1 534.22 12.07C534.47 12.04 534.72 12.13 534.9 12.3L539.11 16.51C539.36 16.76 539.42 17.14 539.27 17.45C538.09 19.82 537.5 22.37 537.5 25.03C537.5 27.69 538.09 30.24 539.27 32.62C539.42 32.93 539.36 33.31 539.11 33.55L534.9 37.76C534.75 37.91 534.54 38 534.33 38L534.32 38.01ZM534.5 14.22C532.71 17.53 531.78 21.25 531.78 25.04C531.78 28.82 532.71 32.54 534.5 35.86L537.55 32.81C536.43 30.36 535.86 27.75 535.86 25.04C535.86 22.33 536.43 19.71 537.55 17.26L534.5 14.22Z" fill="#FFFFFF" fill-opacity="1.000000" fill-rule="nonzero"/>
		<path id="Vector" d="M554.64 6.26C544.29 6.26 535.86 14.68 535.86 25.04C535.86 35.4 544.28 43.82 554.64 43.82C565 43.82 573.42 35.4 573.42 25.04C573.42 14.68 565 6.26 554.64 6.26ZM565.21 18.87C566.1 20.4 566.64 22.06 566.81 23.82C566.82 23.89 566.79 23.96 566.72 24C565.38 24.82 564.18 25.83 563.14 27.01C563.09 27.06 563.02 27.08 562.95 27.06L560.63 26.3C560.56 26.28 560.51 26.23 560.5 26.15C560.24 24.23 559.65 22.4 558.73 20.69C558.7 20.63 558.7 20.56 558.74 20.5L560.18 18.52C560.22 18.48 560.27 18.45 560.33 18.45C560.34 18.45 560.36 18.45 560.37 18.45C561.9 18.79 563.48 18.9 565.04 18.77C565.11 18.77 565.18 18.8 565.22 18.86L565.21 18.87ZM559.24 26.48C559.24 26.53 559.23 26.58 559.2 26.62C557.98 28.02 556.42 29.15 554.71 29.87C554.66 29.89 554.62 29.89 554.57 29.87C552.86 29.14 551.3 28.02 550.09 26.62C550.05 26.58 550.04 26.53 550.04 26.48C550.28 24.61 550.86 22.83 551.76 21.19C551.79 21.14 551.83 21.11 551.88 21.1C552.79 20.91 553.71 20.81 554.64 20.81C555.58 20.81 556.5 20.91 557.41 21.1C557.46 21.11 557.5 21.14 557.53 21.19C558.43 22.83 559 24.61 559.24 26.48L559.24 26.48ZM558.96 13.71C558.96 13.71 559.02 13.66 559.08 13.66C559.1 13.66 559.13 13.66 559.16 13.67C561.05 14.42 562.74 15.66 564.06 17.24C564.13 17.31 564.1 17.4 564.09 17.43C564.08 17.45 564.03 17.54 563.92 17.54C562.75 17.55 561.59 17.42 560.46 17.15C560.42 17.14 560.38 17.11 560.35 17.07C559.75 16.07 559.26 15 558.91 13.89C558.88 13.79 558.94 13.73 558.96 13.71L558.96 13.71ZM552.04 13.09C553.74 12.72 555.54 12.72 557.24 13.09C557.31 13.11 557.37 13.16 557.38 13.22C557.75 14.75 558.34 16.21 559.14 17.57C559.17 17.63 559.17 17.7 559.13 17.77L557.7 19.73C557.66 19.79 557.59 19.82 557.52 19.8C555.64 19.42 553.65 19.42 551.76 19.8C551.7 19.82 551.62 19.79 551.58 19.73L550.16 17.77C550.12 17.71 550.11 17.63 550.15 17.57C550.94 16.21 551.54 14.75 551.9 13.22C551.92 13.16 551.97 13.11 552.04 13.09ZM545.22 17.24C546.54 15.65 548.23 14.42 550.13 13.67C550.15 13.66 550.18 13.66 550.2 13.66C550.27 13.66 550.31 13.69 550.32 13.71C550.35 13.73 550.4 13.79 550.37 13.89C550.02 15.01 549.54 16.07 548.94 17.07C548.91 17.11 548.87 17.14 548.82 17.15C547.7 17.42 546.53 17.55 545.37 17.54C545.26 17.54 545.21 17.45 545.2 17.43C545.19 17.4 545.16 17.31 545.23 17.24L545.22 17.24ZM544.08 18.87C544.11 18.82 544.17 18.78 544.24 18.78C544.24 18.78 544.25 18.78 544.25 18.78C545.82 18.9 547.39 18.8 548.92 18.46C548.99 18.44 549.07 18.47 549.11 18.53L550.54 20.5C550.58 20.56 550.59 20.64 550.56 20.69C549.64 22.4 549.05 24.24 548.78 26.16C548.77 26.23 548.73 26.28 548.66 26.31L546.34 27.06C546.27 27.08 546.2 27.06 546.15 27.01C545.11 25.83 543.91 24.83 542.56 24C542.51 23.97 542.47 23.9 542.48 23.83C542.65 22.06 543.19 20.4 544.08 18.88L544.08 18.87ZM544.64 31.55C544.61 31.65 544.52 31.67 544.48 31.67C544.45 31.67 544.36 31.67 544.31 31.59C543.21 29.87 542.56 27.87 542.43 25.82C542.43 25.72 542.5 25.67 542.53 25.65C542.56 25.64 542.64 25.6 542.72 25.66C543.67 26.34 544.54 27.13 545.3 28.01C545.33 28.05 545.34 28.09 545.34 28.14C545.24 29.3 545.01 30.45 544.63 31.56L544.64 31.55ZM549.72 36.25C548.11 35.54 546.7 34.51 545.52 33.18C545.47 33.13 545.45 33.05 545.48 32.99C546.08 31.54 546.46 30.01 546.61 28.45C546.62 28.38 546.67 28.31 546.74 28.29L549.03 27.55C549.03 27.55 549.07 27.54 549.09 27.54C549.14 27.54 549.18 27.56 549.22 27.6C550.51 29.04 552.12 30.21 553.88 30.99C553.95 31.02 553.99 31.08 553.99 31.15L553.99 33.57C553.99 33.64 553.95 33.71 553.88 33.73C552.44 34.35 551.1 35.19 549.9 36.22C549.85 36.26 549.78 36.27 549.71 36.24L549.72 36.25ZM557.81 36.76C557.81 36.79 557.78 36.88 557.68 36.9C555.69 37.41 553.59 37.41 551.61 36.9C551.51 36.88 551.48 36.79 551.47 36.76C551.47 36.72 551.46 36.64 551.55 36.57C552.48 35.88 553.5 35.3 554.58 34.85C554.62 34.83 554.67 34.83 554.71 34.85C555.79 35.3 556.81 35.88 557.75 36.57C557.83 36.63 557.82 36.72 557.82 36.76L557.81 36.76ZM563.78 33.19C562.59 34.51 561.18 35.54 559.57 36.25C559.51 36.28 559.43 36.26 559.38 36.22C558.18 35.2 556.85 34.36 555.4 33.74C555.34 33.71 555.3 33.64 555.3 33.57L555.3 31.16C555.3 31.09 555.34 31.02 555.4 30.99C557.17 30.22 558.78 29.04 560.07 27.6C560.1 27.56 560.15 27.54 560.2 27.54C560.22 27.54 560.24 27.54 560.26 27.55L562.55 28.3C562.62 28.32 562.67 28.38 562.68 28.45C562.82 30.02 563.21 31.54 563.81 33C563.83 33.06 563.82 33.14 563.77 33.19L563.78 33.19ZM564.98 31.6C564.92 31.68 564.84 31.68 564.81 31.68C564.77 31.68 564.69 31.65 564.65 31.56C564.28 30.45 564.04 29.3 563.95 28.14C563.95 28.1 563.96 28.05 563.99 28.01C564.74 27.13 565.61 26.34 566.56 25.66C566.6 25.64 566.63 25.63 566.66 25.63C566.7 25.63 566.74 25.64 566.76 25.65C566.79 25.67 566.86 25.72 566.85 25.82C566.72 27.87 566.07 29.87 564.98 31.59L564.98 31.6Z" fill="#FFFFFF" fill-opacity="1.000000" fill-rule="nonzero"/>
		<path id="Vector" d="M493.61 49.61C487.33 49.61 481.06 47.22 476.28 42.45C466.73 32.89 466.73 17.35 476.28 7.79C480.91 3.16 487.07 0.62 493.61 0.62C500.15 0.62 506.31 3.16 510.94 7.79C520.49 17.35 520.49 32.89 510.94 42.45C506.16 47.22 499.89 49.61 493.61 49.61ZM477.57 41.16C486.41 50 500.8 50 509.65 41.16C518.49 32.31 518.49 17.92 509.65 9.08C505.36 4.79 499.67 2.44 493.61 2.44C487.54 2.44 481.85 4.8 477.56 9.08C468.72 17.92 468.72 32.31 477.56 41.16L477.57 41.16Z" fill="#9DADF2" fill-opacity="1.000000" fill-rule="nonzero"/>
		<path id="Vector" d="M493.29 34.29C493.37 34.5 493.58 34.62 493.8 34.62C493.87 34.62 493.94 34.61 494.01 34.58C495.74 33.86 497.31 32.74 498.56 31.34C498.76 31.11 498.74 30.76 498.51 30.56C498.29 30.36 497.94 30.38 497.74 30.61C496.6 31.89 495.16 32.91 493.58 33.57C493.31 33.69 493.17 34.01 493.29 34.29L493.29 34.29Z" fill="#9DADF2" fill-opacity="1.000000" fill-rule="nonzero"/>
		<path id="Vector" d="M502.95 16.65L493.81 12.99C493.68 12.94 493.53 12.94 493.4 12.99L484.26 16.65C484.05 16.73 483.92 16.93 483.92 17.16L483.92 23.7C483.93 29.74 487.74 35.2 493.41 37.28C493.48 37.3 493.54 37.31 493.6 37.31C493.67 37.31 493.73 37.3 493.79 37.28C499.46 35.2 503.28 29.74 503.29 23.7L503.29 17.16C503.29 16.93 503.16 16.73 502.95 16.65ZM502.19 23.7C502.18 29.2 498.73 34.2 493.61 36.17C488.49 34.2 485.03 29.2 485.02 23.7L485.02 17.53L493.61 14.1L502.19 17.53L502.19 23.7Z" fill="#9DADF2" fill-opacity="1.000000" fill-rule="nonzero"/>
		<path id="Vector" d="M489.79 17.51C489.66 17.45 489.51 17.45 489.37 17.51L487.19 18.38C486.98 18.46 486.85 18.66 486.85 18.89L486.85 21.21C486.85 21.51 487.1 21.76 487.4 21.76C487.7 21.76 487.95 21.51 487.95 21.21L487.95 19.26L489.78 18.53C489.92 18.47 490.02 18.37 490.08 18.23C490.14 18.1 490.14 17.95 490.08 17.81C490.02 17.67 489.92 17.57 489.79 17.51L489.79 17.51Z" fill="#9DADF2" fill-opacity="1.000000" fill-rule="nonzero"/>
		<path id="Vector" d="M507.52 11.2C503.81 7.48 498.86 5.44 493.6 5.44C488.35 5.44 483.41 7.49 479.69 11.2C472.02 18.88 472.02 31.36 479.69 39.04C483.53 42.88 488.56 44.79 493.6 44.79C498.65 44.79 503.68 42.87 507.52 39.04C515.19 31.37 515.19 18.88 507.52 11.2ZM504.8 23.7C504.82 30.68 500.35 36.79 493.7 38.9C493.64 38.93 493.57 38.93 493.51 38.9C486.85 36.79 482.39 30.68 482.41 23.7L482.41 15.98C482.41 15.85 482.49 15.73 482.61 15.68L493.49 11.33C493.52 11.32 493.56 11.31 493.6 11.31C493.65 11.31 493.69 11.32 493.72 11.33L504.6 15.69C504.72 15.73 504.8 15.85 504.8 15.98L504.8 23.71L504.8 23.7Z" fill="#9DADF2" fill-opacity="1.000000" fill-rule="nonzero"/>
		<path id="Vector" d="M433.16 49.4C419.65 49.4 408.67 38.41 408.67 24.91C408.67 11.41 419.66 0.42 433.16 0.42C446.66 0.42 457.65 11.41 457.65 24.91C457.65 38.41 446.66 49.4 433.16 49.4ZM433.16 2.05C420.55 2.05 410.3 12.3 410.3 24.91C410.3 37.51 420.55 47.77 433.16 47.77C445.76 47.77 456.02 37.51 456.02 24.91C456.02 12.3 445.76 2.05 433.16 2.05Z" fill="#478BF9" fill-opacity="1.000000" fill-rule="nonzero"/>
		<path id="Vector" d="M441.55 15.02L449.13 7.44L450.63 8.93L443.04 16.51L441.55 15.02Z" fill="#478BF9" fill-opacity="1.000000" fill-rule="evenodd"/>
		<path id="Vector" d="M415.46 41.11L423.04 33.53L424.53 35.02L416.95 42.61L415.46 41.11Z" fill="#478BF9" fill-opacity="1.000000" fill-rule="evenodd"/>
		<path id="Vector" d="M441.78 35.03L443.27 33.54L450.86 41.12L449.36 42.61L441.78 35.03Z" fill="#478BF9" fill-opacity="1.000000" fill-rule="evenodd"/>
		<path id="Vector" d="M415.45 8.7L416.95 7.21L424.52 14.79L423.03 16.28L415.45 8.7Z" fill="#478BF9" fill-opacity="1.000000" fill-rule="evenodd"/>
		<path id="Vector" d="M439.13 25.57C439.63 25.07 439.63 24.28 439.13 23.79L438.08 22.74C437.59 22.25 436.79 22.25 436.3 22.74L435.74 23.31L435.08 22.66C434.59 22.16 433.79 22.16 433.3 22.66L432.74 23.23L432.08 22.57C431.59 22.07 430.79 22.07 430.3 22.57L426.83 26.04C426.8 26.07 426.8 26.11 426.83 26.14C427.29 26.6 428.05 26.6 428.52 26.14L430.76 23.9C431 23.66 431.39 23.66 431.63 23.9L431.79 24.07C431.83 24.1 431.83 24.14 431.79 24.17L429.93 26.04C429.9 26.07 429.9 26.11 429.93 26.14C430.39 26.6 431.15 26.6 431.61 26.14L433.76 23.99C434 23.75 434.39 23.75 434.63 23.99L434.8 24.16C434.82 24.18 434.82 24.22 434.8 24.26L433 26.06C432.97 26.08 432.97 26.12 433 26.15C433.46 26.62 434.22 26.62 434.69 26.15L436.76 24.08C437 23.84 437.39 23.84 437.63 24.08L437.99 24.44C438.13 24.57 438.13 24.81 437.99 24.95L437.93 25C437.79 25.14 437.56 25.14 437.42 25L436.97 24.54C436.94 24.52 436.9 24.52 436.87 24.54L436.08 25.34C436.05 25.36 436.05 25.4 436.08 25.43L436.79 26.15C437.28 26.64 438.08 26.64 438.57 26.15L439.14 25.58L439.13 25.57Z" fill="#478BF9" fill-opacity="1.000000" fill-rule="nonzero"/>
		<path id="Vector" d="M433.16 6.13C422.79 6.13 414.38 14.54 414.38 24.91C414.38 35.28 422.79 43.69 433.16 43.69C443.53 43.69 451.94 35.28 451.94 24.91C451.94 14.54 443.53 6.13 433.16 6.13ZM433.92 11.93C436.94 12.1 439.68 13.31 441.8 15.19L439.09 17.9C437.67 16.7 435.89 15.93 433.92 15.76L433.92 11.93ZM432.4 11.93L432.4 15.76C430.44 15.92 428.65 16.7 427.24 17.9L424.53 15.19C426.64 13.31 429.38 12.1 432.4 11.93ZM423.44 16.27L426.16 18.98C424.96 20.4 424.18 22.18 424.02 24.14L420.18 24.14C420.36 21.13 421.56 18.39 423.44 16.27ZM420.18 25.67L424.02 25.67C424.18 27.63 424.96 29.42 426.16 30.83L423.44 33.54C421.56 31.42 420.36 28.69 420.18 25.67ZM432.4 37.88C429.38 37.71 426.64 36.51 424.53 34.62L427.24 31.91C428.65 33.11 430.44 33.89 432.4 34.05L432.4 37.88ZM425.27 24.9C425.27 20.55 428.8 17.01 433.16 17.01C437.52 17.01 441.05 20.55 441.05 24.9C441.05 29.26 437.52 32.8 433.16 32.8C428.8 32.8 425.27 29.26 425.27 24.9ZM433.92 37.88L433.92 34.05C435.89 33.89 437.67 33.11 439.09 31.91L441.8 34.62C439.68 36.51 436.94 37.71 433.92 37.88ZM442.88 33.54L440.17 30.83C441.36 29.42 442.14 27.63 442.31 25.67L446.14 25.67C445.96 28.69 444.76 31.42 442.88 33.54ZM442.31 24.14C442.15 22.18 441.36 20.4 440.17 18.98L442.88 16.27C444.76 18.39 445.96 21.13 446.14 24.14L442.31 24.14Z" fill="#478BF9" fill-opacity="1.000000" fill-rule="nonzero"/>
		<path id="Vector" d="M351.35 42.16C341.71 32.53 341.71 16.85 351.35 7.22C360.98 -2.41 376.66 -2.41 386.29 7.22C395.92 16.85 395.92 32.53 386.29 42.16C376.66 51.8 360.98 51.8 351.35 42.16ZM385.12 8.38C376.13 -0.61 361.5 -0.61 352.51 8.38C343.52 17.38 343.52 32.01 352.51 41C361.51 49.99 376.14 49.99 385.12 41C394.12 32 394.12 17.37 385.12 8.38Z" fill="#FFFFFF" fill-opacity="1.000000" fill-rule="nonzero"/>
		<path id="Vector" d="M385.39 19.45C385.3 19.36 385.23 19.25 385.19 19.13C384.34 16.6 382.94 14.36 381.05 12.46C379.15 10.57 376.91 9.17 374.38 8.31C374.04 8.2 373.82 7.89 373.82 7.53L373.82 1.53C373.82 1.27 373.93 1.04 374.13 0.88C374.33 0.72 374.59 0.67 374.84 0.73C379.16 1.81 383.12 4.06 386.28 7.22C389.45 10.39 391.69 14.34 392.77 18.67C392.83 18.91 392.78 19.17 392.62 19.38C392.47 19.58 392.23 19.69 391.97 19.69L385.97 19.69C385.75 19.69 385.54 19.6 385.39 19.45L385.39 19.45ZM382.21 11.3C384.14 13.23 385.6 15.5 386.56 18.04L390.9 18.04C389.81 14.41 387.82 11.09 385.12 8.38C382.42 5.68 379.1 3.7 375.46 2.61L375.46 6.95C378.01 7.9 380.28 9.36 382.21 11.3L382.21 11.3Z" fill="#FFFFFF" fill-opacity="1.000000" fill-rule="nonzero"/>
		<path id="Vector" d="M351.35 42.16C348.18 39 345.94 35.04 344.85 30.71C344.79 30.47 344.85 30.21 345 30.01C345.16 29.81 345.4 29.69 345.65 29.69L351.66 29.69C352.01 29.69 352.33 29.92 352.44 30.25C353.29 32.78 354.69 35.03 356.59 36.92C358.48 38.82 360.73 40.22 363.26 41.07C363.59 41.19 363.82 41.5 363.82 41.85L363.82 47.86C363.82 48.11 363.7 48.35 363.5 48.51C363.3 48.66 363.04 48.72 362.79 48.66C358.47 47.57 354.51 45.33 351.35 42.17L351.35 42.16ZM346.73 31.34C347.83 34.97 349.81 38.3 352.51 41C355.21 43.7 358.53 45.68 362.17 46.78L362.17 42.43C359.63 41.48 357.36 40.02 355.42 38.09C353.49 36.15 352.03 33.88 351.08 31.34L346.73 31.34L346.73 31.34Z" fill="#FFFFFF" fill-opacity="1.000000" fill-rule="nonzero"/>
		<path id="Vector" d="M374.06 48.44C373.91 48.28 373.82 48.07 373.82 47.85L373.82 41.85C373.82 41.49 374.04 41.18 374.38 41.07C376.91 40.21 379.15 38.82 381.05 36.92C382.95 35.02 384.34 32.78 385.2 30.25C385.31 29.91 385.62 29.69 385.98 29.69L391.98 29.69C392.24 29.69 392.48 29.81 392.63 30.01C392.79 30.2 392.84 30.47 392.78 30.71C391.7 35.04 389.45 38.99 386.29 42.16C383.13 45.32 379.17 47.57 374.84 48.65C374.6 48.71 374.34 48.65 374.14 48.5C374.11 48.48 374.09 48.46 374.06 48.43L374.06 48.44ZM375.47 42.43L375.47 46.77C379.1 45.68 382.42 43.7 385.13 41C387.83 38.29 389.81 34.97 390.9 31.34L386.56 31.34C385.61 33.88 384.15 36.15 382.21 38.08C380.28 40.02 378.01 41.48 375.47 42.43Z" fill="#FFFFFF" fill-opacity="1.000000" fill-rule="nonzero"/>
		<path id="Vector" d="M345.07 19.45C345.05 19.43 345.02 19.4 345 19.38C344.85 19.18 344.79 18.91 344.85 18.67C345.94 14.34 348.18 10.38 351.35 7.22C354.51 4.06 358.47 1.81 362.79 0.73C363.04 0.67 363.3 0.72 363.5 0.88C363.7 1.04 363.82 1.27 363.82 1.53L363.82 7.53C363.82 7.89 363.59 8.2 363.26 8.31C360.73 9.17 358.48 10.56 356.59 12.46C354.69 14.36 353.29 16.6 352.44 19.13C352.32 19.47 352.01 19.69 351.66 19.69L345.65 19.69C345.43 19.69 345.22 19.61 345.07 19.45L345.07 19.45ZM362.17 2.61C358.53 3.7 355.21 5.69 352.51 8.39C349.81 11.09 347.83 14.41 346.73 18.05L351.08 18.05C352.02 15.5 353.48 13.24 355.42 11.3C357.36 9.36 359.62 7.9 362.17 6.95L362.17 2.61Z" fill="#FFFFFF" fill-opacity="1.000000" fill-rule="nonzero"/>
		<path id="Vector" d="M382.21 11.3C374.83 3.91 362.81 3.91 355.42 11.3C348.04 18.68 348.04 30.7 355.42 38.09C362.81 45.47 374.82 45.47 382.21 38.09C389.6 30.7 389.6 18.68 382.21 11.3Z" fill="#FFFFFF" fill-opacity="1.000000" fill-rule="nonzero"/>
		<path id="Vector" d="M362.04 31.54L375.65 31.45C376.22 31.45 376.69 31.91 376.69 32.48L376.7 32.97C376.7 33.54 376.24 34.01 375.67 34.01L362.06 34.1C361.49 34.11 361.02 33.65 361.01 33.07L361.01 32.59C361.01 32.01 361.47 31.55 362.04 31.54Z" fill="#110A1D" fill-opacity="1.000000" fill-rule="evenodd"/>
		<path id="Vector" d="M363.9 23.24C363.75 23.24 363.6 23.21 363.46 23.14L362.4 22.63C361.94 22.4 361.73 21.86 361.92 21.38L362.41 20.17C362.56 19.8 362.91 19.56 363.31 19.55C363.48 19.55 363.65 19.6 363.8 19.68L365.06 20.4C365.3 20.54 365.47 20.77 365.53 21.04C365.59 21.3 365.54 21.58 365.39 21.81L364.69 22.81C364.51 23.08 364.21 23.24 363.89 23.24L363.9 23.24Z" fill="#110A1D" fill-opacity="1.000000" fill-rule="nonzero"/>
		<path id="Vector" d="M373.69 23.17C373.37 23.17 373.07 23.02 372.89 22.76L372.2 21.79C372.04 21.57 371.98 21.29 372.04 21.02C372.1 20.76 372.27 20.52 372.5 20.38L373.81 19.62C373.95 19.53 374.12 19.48 374.29 19.48C374.69 19.48 375.05 19.72 375.21 20.08L375.7 21.26C375.89 21.74 375.69 22.29 375.23 22.52L374.12 23.07C373.99 23.14 373.84 23.17 373.69 23.17L373.69 23.17Z" fill="#110A1D" fill-opacity="1.000000" fill-rule="nonzero"/>
		<path id="Vector" d="M362.83 30.63C362.23 30.64 361.69 30.26 361.49 29.7L359.22 23.45C359.07 23.52 358.92 23.58 358.76 23.62C358.58 23.66 358.39 23.69 358.2 23.69C358.09 23.69 357.98 23.68 357.88 23.67C356.69 23.52 355.8 22.5 355.79 21.31C355.78 19.99 356.85 18.9 358.17 18.9C359.49 18.89 360.57 19.95 360.58 21.28C360.58 21.58 360.53 21.87 360.42 22.15C360.36 22.3 360.29 22.44 360.2 22.58L364.52 24.67L367.83 19.88C367.69 19.82 367.55 19.75 367.43 19.66C367.19 19.5 366.98 19.3 366.81 19.06C366.53 18.66 366.37 18.18 366.37 17.69C366.36 16.37 367.43 15.29 368.75 15.28C368.81 15.28 368.87 15.28 368.93 15.28C370.11 15.36 371.07 16.31 371.15 17.49C371.19 18.05 371.05 18.59 370.73 19.05C370.56 19.29 370.35 19.49 370.12 19.65C369.99 19.74 369.86 19.81 369.72 19.87L373.08 24.61L377.33 22.48C377.25 22.33 377.19 22.17 377.14 22C377.08 21.8 377.05 21.59 377.05 21.38C377.05 21.28 377.06 21.19 377.07 21.09C377.2 19.89 378.22 18.97 379.43 18.97C380.75 18.96 381.83 20.03 381.84 21.35C381.85 22.61 380.87 23.67 379.61 23.75L379.46 23.76C379.22 23.76 378.98 23.73 378.75 23.66C378.6 23.61 378.45 23.55 378.32 23.48L376.19 29.6C375.99 30.17 375.46 30.55 374.86 30.55L362.83 30.63L362.83 30.63Z" fill="#110A1D" fill-opacity="1.000000" fill-rule="nonzero"/>
		<path id="Vector" d="M309.16 49.61C302.88 49.61 296.61 47.23 291.83 42.45C282.27 32.89 282.27 17.35 291.83 7.79C296.46 3.16 302.61 0.62 309.16 0.62C315.7 0.62 321.85 3.16 326.49 7.79C336.04 17.35 336.04 32.89 326.49 42.45C321.71 47.22 315.43 49.61 309.16 49.61ZM293.11 41.16C301.96 50 316.35 50 325.19 41.16C334.04 32.31 334.04 17.92 325.19 9.08C320.91 4.79 315.21 2.44 309.15 2.44C303.09 2.44 297.4 4.8 293.11 9.08C284.26 17.92 284.26 32.31 293.11 41.16L293.11 41.16Z" fill="#9DADF2" fill-opacity="1.000000" fill-rule="nonzero"/>
		<path id="Vector" d="M308.83 34.28C308.92 34.5 309.13 34.62 309.34 34.62C309.41 34.62 309.49 34.6 309.56 34.58C311.29 33.85 312.86 32.73 314.11 31.33C314.31 31.11 314.29 30.76 314.06 30.55C313.83 30.35 313.48 30.37 313.28 30.6C312.15 31.88 310.71 32.91 309.13 33.56C308.85 33.68 308.72 34.01 308.84 34.28L308.83 34.28Z" fill="#9DADF2" fill-opacity="1.000000" fill-rule="nonzero"/>
		<path id="Vector" d="M318.49 16.65L309.36 12.99C309.22 12.94 309.08 12.94 308.94 12.99L299.81 16.65C299.6 16.73 299.46 16.93 299.46 17.16L299.46 23.7C299.47 29.74 303.29 35.2 308.96 37.28C309.02 37.3 309.08 37.31 309.15 37.31C309.22 37.31 309.28 37.3 309.34 37.28C315.01 35.2 318.83 29.74 318.84 23.7L318.84 17.16C318.84 16.93 318.71 16.73 318.49 16.65ZM317.74 23.7C317.73 29.2 314.28 34.2 309.16 36.17C304.03 34.2 300.58 29.2 300.57 23.7L300.57 17.53L309.16 14.1L317.74 17.53L317.74 23.7Z" fill="#9DADF2" fill-opacity="1.000000" fill-rule="nonzero"/>
		<path id="Vector" d="M305.34 17.51C305.2 17.45 305.06 17.45 304.92 17.51L302.74 18.38C302.53 18.46 302.4 18.66 302.4 18.89L302.4 21.21C302.4 21.51 302.64 21.76 302.95 21.76C303.25 21.76 303.5 21.51 303.5 21.21L303.5 19.26L305.32 18.53C305.46 18.47 305.57 18.37 305.63 18.23C305.68 18.1 305.68 17.95 305.63 17.81C305.57 17.67 305.47 17.57 305.33 17.51L305.34 17.51Z" fill="#9DADF2" fill-opacity="1.000000" fill-rule="nonzero"/>
		<path id="Vector" d="M323.07 11.2C319.35 7.48 314.41 5.44 309.15 5.44C303.89 5.44 298.95 7.49 295.23 11.2C287.56 18.88 287.56 31.36 295.23 39.04C299.07 42.88 304.11 44.79 309.15 44.79C314.19 44.79 319.23 42.87 323.07 39.04C330.74 31.37 330.74 18.88 323.07 11.2ZM320.35 23.7C320.36 30.68 315.9 36.79 309.25 38.91C309.19 38.93 309.12 38.93 309.05 38.91C302.4 36.79 297.94 30.68 297.96 23.7L297.96 15.98C297.96 15.85 298.03 15.73 298.16 15.68L309.03 11.33C309.07 11.32 309.11 11.31 309.15 11.31C309.19 11.31 309.23 11.32 309.27 11.33L320.15 15.69C320.27 15.73 320.35 15.85 320.35 15.98L320.35 23.71L320.35 23.7Z" fill="#9DADF2" fill-opacity="1.000000" fill-rule="nonzero"/>
		<path id="Vector" d="M246.57 49.53C233.07 49.53 222.08 38.54 222.08 25.04C222.08 11.54 233.07 0.55 246.57 0.55C260.07 0.55 271.06 11.54 271.06 25.04C271.06 38.54 260.07 49.53 246.57 49.53ZM246.57 2.18C233.97 2.18 223.71 12.44 223.71 25.04C223.71 37.65 233.97 47.9 246.57 47.9C259.18 47.9 269.43 37.65 269.43 25.04C269.43 12.44 259.18 2.18 246.57 2.18Z" fill="#FFFFFF" fill-opacity="1.000000" fill-rule="nonzero"/>
		<path id="Vector" d="M254.52 9.75C254.39 9.75 254.27 9.72 254.16 9.66C251.79 8.49 249.23 7.89 246.57 7.89C243.91 7.89 241.36 8.49 238.99 9.66C238.68 9.82 238.3 9.76 238.05 9.51L233.84 5.3C233.66 5.12 233.58 4.87 233.61 4.62C233.64 4.37 233.79 4.15 234 4.02C237.8 1.74 242.14 0.55 246.58 0.55C251.01 0.55 255.36 1.75 259.15 4.02C259.37 4.15 259.51 4.37 259.54 4.62C259.57 4.87 259.49 5.12 259.31 5.3L255.1 9.51C254.94 9.66 254.74 9.75 254.52 9.75L254.52 9.75ZM246.57 6.26C249.28 6.26 251.9 6.83 254.35 7.94L257.39 4.9C254.08 3.11 250.36 2.18 246.57 2.18C242.79 2.18 239.07 3.11 235.75 4.9L238.8 7.94C241.25 6.83 243.86 6.26 246.57 6.26Z" fill="#FFFFFF" fill-opacity="1.000000" fill-rule="nonzero"/>
		<path id="Vector" d="M246.57 49.53C242.14 49.53 237.79 48.33 234 46.06C233.78 45.93 233.64 45.71 233.61 45.46C233.58 45.21 233.66 44.96 233.84 44.78L238.05 40.57C238.29 40.32 238.67 40.26 238.98 40.42C241.36 41.59 243.91 42.19 246.57 42.19C249.23 42.19 251.78 41.59 254.15 40.42C254.47 40.26 254.84 40.32 255.09 40.57L259.3 44.78C259.48 44.96 259.56 45.21 259.53 45.46C259.5 45.71 259.35 45.93 259.14 46.06C255.35 48.33 251 49.53 246.56 49.53L246.57 49.53ZM235.75 45.18C239.07 46.97 242.79 47.9 246.57 47.9C250.36 47.9 254.08 46.97 257.39 45.18L254.35 42.13C251.9 43.25 249.28 43.82 246.57 43.82C243.86 43.82 241.25 43.25 238.8 42.13L235.75 45.18Z" fill="#FFFFFF" fill-opacity="1.000000" fill-rule="nonzero"/>
		<path id="Vector" d="M266.89 38.01C266.68 38.01 266.47 37.92 266.32 37.77L262.11 33.56C261.86 33.32 261.8 32.93 261.95 32.63C263.13 30.25 263.72 27.7 263.72 25.04C263.72 22.38 263.13 19.83 261.95 17.46C261.8 17.14 261.86 16.76 262.11 16.52L266.32 12.31C266.5 12.13 266.74 12.05 267 12.08C267.25 12.11 267.47 12.26 267.6 12.47C269.87 16.26 271.07 20.61 271.07 25.05C271.07 29.48 269.87 33.83 267.6 37.62C267.47 37.84 267.25 37.98 267 38.01C266.96 38.01 266.93 38.01 266.89 38.01L266.89 38.01ZM263.67 32.81L266.71 35.86C268.5 32.54 269.43 28.82 269.43 25.04C269.43 21.25 268.5 17.53 266.71 14.22L263.67 17.26C264.78 19.71 265.35 22.33 265.35 25.04C265.35 27.75 264.78 30.36 263.67 32.81Z" fill="#FFFFFF" fill-opacity="1.000000" fill-rule="nonzero"/>
		<path id="Vector" d="M226.26 38.01C226.22 38.01 226.19 38.01 226.16 38C225.91 37.97 225.68 37.83 225.56 37.61C223.28 33.82 222.08 29.47 222.08 25.04C222.08 20.6 223.28 16.25 225.56 12.46C225.68 12.25 225.91 12.1 226.16 12.07C226.41 12.04 226.66 12.13 226.84 12.3L231.05 16.51C231.29 16.76 231.35 17.14 231.2 17.45C230.03 19.82 229.43 22.37 229.43 25.03C229.43 27.69 230.03 30.24 231.2 32.62C231.35 32.93 231.29 33.31 231.05 33.55L226.84 37.76C226.68 37.91 226.48 38 226.26 38L226.26 38.01ZM226.44 14.22C224.65 17.53 223.71 21.25 223.71 25.04C223.71 28.82 224.65 32.54 226.44 35.86L229.48 32.81C228.37 30.36 227.8 27.75 227.8 25.04C227.8 22.33 228.37 19.71 229.48 17.26L226.44 14.22Z" fill="#FFFFFF" fill-opacity="1.000000" fill-rule="nonzero"/>
		<path id="Vector" d="M246.57 6.26C236.22 6.26 227.79 14.68 227.79 25.04C227.79 35.4 236.22 43.82 246.57 43.82C256.93 43.82 265.35 35.4 265.35 25.04C265.35 14.68 256.93 6.26 246.57 6.26ZM257.14 18.87C258.03 20.4 258.57 22.06 258.75 23.82C258.75 23.89 258.72 23.96 258.66 24C257.32 24.82 256.11 25.83 255.07 27.01C255.03 27.06 254.95 27.08 254.88 27.06L252.56 26.3C252.5 26.28 252.45 26.23 252.44 26.15C252.18 24.23 251.58 22.4 250.66 20.69C250.63 20.63 250.64 20.56 250.68 20.5L252.12 18.52C252.15 18.48 252.21 18.45 252.27 18.45C252.28 18.45 252.29 18.45 252.31 18.45C253.84 18.79 255.41 18.9 256.98 18.77C257.05 18.76 257.12 18.8 257.15 18.86L257.14 18.87ZM251.17 26.48C251.18 26.53 251.16 26.58 251.13 26.62C249.91 28.02 248.36 29.15 246.65 29.87C246.6 29.89 246.55 29.89 246.51 29.87C244.79 29.14 243.24 28.02 242.02 26.62C241.99 26.58 241.97 26.53 241.98 26.48C242.22 24.61 242.8 22.83 243.7 21.19C243.72 21.14 243.77 21.11 243.82 21.1C244.72 20.91 245.65 20.81 246.58 20.81C247.51 20.81 248.44 20.91 249.34 21.1C249.39 21.11 249.44 21.14 249.46 21.19C250.36 22.83 250.94 24.61 251.18 26.48L251.17 26.48ZM250.9 13.71C250.9 13.71 250.96 13.66 251.02 13.66C251.04 13.66 251.07 13.66 251.09 13.67C252.99 14.42 254.68 15.66 256 17.24C256.06 17.31 256.04 17.4 256.02 17.43C256.01 17.45 255.96 17.54 255.86 17.54C254.69 17.55 253.53 17.42 252.4 17.15C252.35 17.14 252.31 17.11 252.29 17.07C251.68 16.07 251.2 15 250.85 13.89C250.82 13.79 250.88 13.73 250.9 13.71L250.9 13.71ZM243.98 13.09C245.68 12.72 247.47 12.72 249.18 13.09C249.24 13.11 249.3 13.16 249.32 13.22C249.68 14.75 250.27 16.21 251.07 17.57C251.11 17.63 251.1 17.7 251.06 17.77L249.64 19.73C249.59 19.79 249.52 19.82 249.46 19.8C247.57 19.42 245.58 19.42 243.7 19.8C243.63 19.82 243.56 19.79 243.52 19.73L242.09 17.77C242.05 17.71 242.05 17.63 242.08 17.57C242.88 16.21 243.47 14.75 243.84 13.22C243.85 13.16 243.91 13.11 243.98 13.09ZM237.16 17.24C238.48 15.65 240.17 14.42 242.06 13.67C242.09 13.66 242.11 13.66 242.13 13.66C242.2 13.66 242.24 13.69 242.26 13.71C242.28 13.73 242.34 13.79 242.31 13.89C241.96 15.01 241.48 16.07 240.87 17.07C240.85 17.11 240.81 17.14 240.76 17.15C239.63 17.42 238.47 17.55 237.3 17.54C237.19 17.54 237.15 17.45 237.14 17.43C237.12 17.4 237.1 17.31 237.16 17.24L237.16 17.24ZM236.01 18.87C236.04 18.82 236.1 18.78 236.17 18.78C236.17 18.78 236.18 18.78 236.19 18.78C237.76 18.9 239.33 18.8 240.86 18.46C240.93 18.44 241 18.47 241.04 18.53L242.48 20.5C242.52 20.56 242.53 20.64 242.49 20.69C241.58 22.4 240.98 24.24 240.72 26.16C240.71 26.23 240.66 26.28 240.6 26.31L238.28 27.06C238.21 27.08 238.13 27.06 238.09 27.01C237.05 25.83 235.84 24.83 234.5 24C234.44 23.97 234.41 23.9 234.41 23.83C234.59 22.06 235.13 20.4 236.02 18.88L236.01 18.87ZM236.57 31.55C236.54 31.65 236.45 31.67 236.42 31.67C236.38 31.67 236.3 31.67 236.24 31.59C235.15 29.87 234.5 27.87 234.37 25.82C234.37 25.72 234.43 25.67 234.46 25.65C234.49 25.64 234.58 25.6 234.66 25.66C235.61 26.34 236.47 27.13 237.23 28.01C237.26 28.05 237.28 28.09 237.27 28.14C237.18 29.3 236.94 30.45 236.57 31.56L236.57 31.55ZM241.66 36.25C240.05 35.54 238.64 34.51 237.45 33.18C237.41 33.13 237.39 33.05 237.42 32.99C238.02 31.54 238.4 30.01 238.55 28.45C238.55 28.38 238.6 28.31 238.67 28.29L240.97 27.55C240.97 27.55 241 27.54 241.02 27.54C241.07 27.54 241.12 27.56 241.16 27.6C242.44 29.04 244.05 30.21 245.82 30.99C245.88 31.02 245.93 31.08 245.93 31.15L245.93 33.57C245.93 33.64 245.88 33.71 245.82 33.73C244.38 34.35 243.04 35.19 241.84 36.22C241.79 36.26 241.71 36.27 241.65 36.24L241.66 36.25ZM249.75 36.76C249.74 36.79 249.72 36.88 249.62 36.9C247.63 37.41 245.53 37.41 243.54 36.9C243.45 36.88 243.42 36.79 243.41 36.76C243.4 36.72 243.39 36.64 243.48 36.57C244.42 35.88 245.44 35.3 246.51 34.85C246.56 34.83 246.61 34.83 246.65 34.85C247.72 35.3 248.74 35.88 249.68 36.57C249.76 36.63 249.76 36.72 249.75 36.76L249.75 36.76ZM255.71 33.19C254.53 34.51 253.11 35.54 251.51 36.25C251.44 36.28 251.37 36.26 251.32 36.22C250.12 35.2 248.79 34.36 247.34 33.74C247.27 33.71 247.23 33.64 247.23 33.57L247.23 31.16C247.23 31.09 247.27 31.02 247.34 30.99C249.11 30.22 250.72 29.04 252 27.6C252.04 27.56 252.08 27.54 252.14 27.54C252.16 27.54 252.17 27.54 252.19 27.55L254.49 28.3C254.55 28.32 254.61 28.38 254.61 28.45C254.76 30.02 255.14 31.54 255.74 33C255.77 33.06 255.76 33.13 255.71 33.19L255.71 33.19ZM256.92 31.6C256.86 31.68 256.77 31.68 256.74 31.68C256.71 31.68 256.62 31.65 256.59 31.56C256.22 30.45 255.98 29.3 255.88 28.14C255.88 28.1 255.89 28.05 255.92 28.01C256.68 27.13 257.54 26.34 258.5 25.66C258.53 25.64 258.57 25.63 258.6 25.63C258.64 25.63 258.67 25.64 258.69 25.65C258.72 25.67 258.79 25.72 258.78 25.82C258.66 27.87 258.01 29.87 256.91 31.59L256.92 31.6Z" fill="#FFFFFF" fill-opacity="1.000000" fill-rule="nonzero"/>
		<path id="Vector" d="M185.55 49.61C179.27 49.61 173 47.22 168.22 42.45C158.66 32.89 158.66 17.35 168.22 7.79C172.85 3.16 179 0.62 185.55 0.62C192.09 0.62 198.24 3.16 202.87 7.79C212.43 17.35 212.43 32.89 202.87 42.45C198.1 47.22 191.82 49.61 185.55 49.61ZM169.5 41.16C178.35 50 192.74 50 201.58 41.16C210.43 32.31 210.43 17.92 201.58 9.08C197.3 4.79 191.6 2.44 185.54 2.44C179.48 2.44 173.78 4.8 169.5 9.08C160.65 17.92 160.65 32.31 169.5 41.16L169.5 41.16Z" fill="#9DADF2" fill-opacity="1.000000" fill-rule="nonzero"/>
		<path id="Vector" d="M185.22 34.29C185.31 34.5 185.51 34.62 185.73 34.62C185.8 34.62 185.87 34.61 185.95 34.58C187.68 33.86 189.25 32.74 190.5 31.34C190.7 31.11 190.68 30.76 190.45 30.56C190.22 30.36 189.87 30.38 189.67 30.61C188.54 31.89 187.1 32.91 185.52 33.57C185.24 33.69 185.11 34.01 185.23 34.29L185.22 34.29Z" fill="#9DADF2" fill-opacity="1.000000" fill-rule="nonzero"/>
		<path id="Vector" d="M194.88 16.65L185.75 12.99C185.61 12.94 185.47 12.94 185.33 12.99L176.2 16.65C175.99 16.73 175.85 16.93 175.85 17.16L175.85 23.7C175.86 29.74 179.68 35.2 185.35 37.28C185.41 37.3 185.47 37.31 185.54 37.31C185.61 37.31 185.67 37.3 185.73 37.28C191.4 35.2 195.22 29.74 195.23 23.7L195.23 17.16C195.23 16.93 195.09 16.73 194.88 16.65ZM194.13 23.7C194.12 29.2 190.67 34.2 185.55 36.17C180.42 34.2 176.97 29.2 176.96 23.7L176.96 17.53L185.55 14.1L194.13 17.53L194.13 23.7Z" fill="#9DADF2" fill-opacity="1.000000" fill-rule="nonzero"/>
		<path id="Vector" d="M181.73 17.51C181.59 17.45 181.44 17.45 181.31 17.51L179.13 18.38C178.92 18.46 178.78 18.66 178.78 18.89L178.78 21.21C178.78 21.51 179.03 21.76 179.34 21.76C179.64 21.76 179.89 21.51 179.89 21.21L179.89 19.26L181.71 18.53C181.85 18.47 181.95 18.37 182.02 18.23C182.07 18.1 182.07 17.95 182.02 17.81C181.96 17.67 181.86 17.57 181.72 17.51L181.73 17.51Z" fill="#9DADF2" fill-opacity="1.000000" fill-rule="nonzero"/>
		<path id="Vector" d="M199.46 11.2C195.74 7.48 190.8 5.44 185.54 5.44C180.28 5.44 175.34 7.49 171.62 11.2C163.95 18.88 163.95 31.36 171.62 39.04C175.46 42.88 180.5 44.79 185.54 44.79C190.58 44.79 195.62 42.87 199.46 39.04C207.13 31.37 207.13 18.88 199.46 11.2ZM196.74 23.7C196.75 30.68 192.29 36.79 185.64 38.9C185.58 38.93 185.51 38.93 185.44 38.9C178.79 36.79 174.33 30.68 174.34 23.7L174.34 15.98C174.34 15.85 174.42 15.73 174.54 15.68L185.42 11.33C185.46 11.32 185.5 11.31 185.54 11.31C185.58 11.31 185.62 11.32 185.66 11.33L196.53 15.69C196.66 15.73 196.74 15.85 196.74 15.98L196.74 23.71L196.74 23.7Z" fill="#9DADF2" fill-opacity="1.000000" fill-rule="nonzero"/>
		<path id="Vector" d="M125.09 49.4C111.59 49.4 100.6 38.41 100.6 24.91C100.6 11.41 111.59 0.42 125.09 0.42C138.59 0.42 149.58 11.41 149.58 24.91C149.58 38.41 138.59 49.4 125.09 49.4ZM125.09 2.05C112.49 2.05 102.23 12.3 102.23 24.91C102.23 37.51 112.49 47.77 125.09 47.77C137.7 47.77 147.95 37.51 147.95 24.91C147.95 12.3 137.7 2.05 125.09 2.05Z" fill="#478BF9" fill-opacity="1.000000" fill-rule="nonzero"/>
		<path id="Vector" d="M133.49 15.02L141.07 7.44L142.56 8.93L134.98 16.51L133.49 15.02Z" fill="#478BF9" fill-opacity="1.000000" fill-rule="evenodd"/>
		<path id="Vector" d="M107.39 41.11L114.97 33.53L116.47 35.02L108.88 42.61L107.39 41.11Z" fill="#478BF9" fill-opacity="1.000000" fill-rule="evenodd"/>
		<path id="Vector" d="M133.72 35.03L135.21 33.54L142.79 41.12L141.3 42.61L133.72 35.03Z" fill="#478BF9" fill-opacity="1.000000" fill-rule="evenodd"/>
		<path id="Vector" d="M107.39 8.7L108.88 7.21L116.46 14.79L114.97 16.28L107.39 8.7Z" fill="#478BF9" fill-opacity="1.000000" fill-rule="evenodd"/>
		<path id="Vector" d="M131.07 25.57C131.56 25.07 131.56 24.28 131.07 23.79L130.02 22.74C129.52 22.25 128.73 22.25 128.24 22.74L127.67 23.31L127.02 22.66C126.52 22.16 125.73 22.16 125.24 22.66L124.67 23.23L124.02 22.57C123.52 22.07 122.73 22.07 122.24 22.57L118.76 26.04C118.74 26.07 118.74 26.11 118.76 26.14C119.23 26.6 119.98 26.6 120.45 26.14L122.69 23.9C122.93 23.66 123.32 23.66 123.56 23.9L123.73 24.07C123.76 24.1 123.76 24.14 123.73 24.17L121.86 26.04C121.84 26.07 121.84 26.11 121.86 26.14C122.33 26.6 123.08 26.6 123.55 26.14L125.69 23.99C125.94 23.75 126.33 23.75 126.57 23.99L126.73 24.16C126.76 24.18 126.76 24.22 126.73 24.26L124.93 26.06C124.91 26.08 124.91 26.12 124.93 26.15C125.4 26.62 126.15 26.62 126.62 26.15L128.69 24.08C128.94 23.84 129.33 23.84 129.57 24.08L129.92 24.44C130.06 24.57 130.06 24.81 129.92 24.95L129.87 25C129.73 25.14 129.5 25.14 129.36 25L128.9 24.54C128.87 24.52 128.83 24.52 128.8 24.54L128.01 25.34C127.98 25.36 127.98 25.4 128.01 25.43L128.73 26.15C129.22 26.64 130.02 26.64 130.5 26.15L131.07 25.58L131.07 25.57Z" fill="#478BF9" fill-opacity="1.000000" fill-rule="nonzero"/>
		<path id="Vector" d="M125.09 6.13C114.72 6.13 106.31 14.54 106.31 24.91C106.31 35.28 114.72 43.69 125.09 43.69C135.47 43.69 143.87 35.28 143.87 24.91C143.87 14.54 135.47 6.13 125.09 6.13ZM125.86 11.93C128.88 12.1 131.61 13.31 133.73 15.19L131.02 17.9C129.61 16.7 127.82 15.93 125.86 15.76L125.86 11.93ZM124.33 11.93L124.33 15.76C122.37 15.92 120.59 16.7 119.17 17.9L116.46 15.19C118.58 13.31 121.32 12.1 124.33 11.93ZM115.38 16.27L118.09 18.98C116.89 20.4 116.12 22.18 115.95 24.14L112.12 24.14C112.29 21.13 113.5 18.39 115.38 16.27ZM112.12 25.67L115.95 25.67C116.11 27.63 116.89 29.42 118.09 30.83L115.38 33.54C113.5 31.42 112.29 28.69 112.12 25.67ZM124.33 37.88C121.32 37.71 118.58 36.51 116.46 34.62L119.17 31.91C120.59 33.11 122.37 33.89 124.33 34.05L124.33 37.88ZM117.2 24.9C117.2 20.55 120.74 17.01 125.09 17.01C129.45 17.01 132.99 20.55 132.99 24.9C132.99 29.26 129.45 32.8 125.09 32.8C120.74 32.8 117.2 29.26 117.2 24.9ZM125.86 37.88L125.86 34.05C127.82 33.89 129.61 33.11 131.02 31.91L133.73 34.62C131.61 36.51 128.88 37.71 125.86 37.88ZM134.81 33.54L132.1 30.83C133.3 29.42 134.08 27.63 134.24 25.67L138.08 25.67C137.9 28.69 136.7 31.42 134.81 33.54ZM134.24 24.14C134.08 22.18 133.3 20.4 132.1 18.98L134.81 16.27C136.7 18.39 137.9 21.13 138.08 24.14L134.24 24.14Z" fill="#478BF9" fill-opacity="1.000000" fill-rule="nonzero"/>
		<path id="Vector" d="M43.28 42.16C33.65 32.53 33.65 16.86 43.28 7.22C52.92 -2.41 68.59 -2.41 78.22 7.22C87.86 16.86 87.86 32.53 78.22 42.16C68.59 51.8 52.92 51.8 43.28 42.16ZM77.06 8.39C68.07 -0.61 53.44 -0.61 44.45 8.39C35.46 17.38 35.46 32.01 44.45 41C53.44 49.99 68.07 49.99 77.06 41C86.05 32.01 86.05 17.38 77.06 8.39Z" fill="#FFFFFF" fill-opacity="1.000000" fill-rule="nonzero"/>
		<path id="Vector" d="M77.33 19.45C77.24 19.37 77.17 19.26 77.13 19.13C76.28 16.6 74.88 14.36 72.98 12.46C71.09 10.57 68.84 9.17 66.31 8.31C65.98 8.2 65.75 7.89 65.75 7.53L65.75 1.53C65.75 1.28 65.87 1.04 66.07 0.88C66.27 0.72 66.53 0.67 66.77 0.73C71.1 1.81 75.06 4.06 78.22 7.22C81.38 10.39 83.63 14.35 84.71 18.67C84.77 18.92 84.72 19.18 84.56 19.38C84.4 19.58 84.17 19.69 83.91 19.69L77.91 19.69C77.68 19.69 77.48 19.6 77.32 19.45L77.33 19.45ZM74.15 11.3C76.08 13.23 77.54 15.5 78.49 18.05L82.84 18.05C81.75 14.41 79.76 11.09 77.06 8.39C74.36 5.69 71.04 3.7 67.4 2.61L67.4 6.96C69.95 7.9 72.21 9.36 74.15 11.3L74.15 11.3Z" fill="#FFFFFF" fill-opacity="1.000000" fill-rule="nonzero"/>
		<path id="Vector" d="M43.28 42.16C40.12 39 37.87 35.04 36.79 30.72C36.73 30.47 36.79 30.21 36.94 30.01C37.1 29.81 37.34 29.7 37.59 29.7L43.59 29.7C43.95 29.7 44.26 29.92 44.37 30.26C45.23 32.79 46.63 35.03 48.52 36.93C50.42 38.82 52.66 40.22 55.19 41.08C55.53 41.19 55.75 41.5 55.75 41.86L55.75 47.86C55.75 48.11 55.64 48.35 55.44 48.51C55.24 48.67 54.98 48.72 54.73 48.66C50.4 47.58 46.45 45.33 43.28 42.17L43.28 42.16ZM38.67 31.34C39.76 34.98 41.75 38.3 44.45 41C47.15 43.7 50.47 45.69 54.11 46.78L54.11 42.43C51.56 41.49 49.29 40.03 47.36 38.09C45.42 36.16 43.96 33.89 43.01 31.34L38.67 31.34L38.67 31.34Z" fill="#FFFFFF" fill-opacity="1.000000" fill-rule="nonzero"/>
		<path id="Vector" d="M65.99 48.44C65.84 48.28 65.75 48.08 65.75 47.86L65.75 41.85C65.75 41.5 65.98 41.18 66.31 41.07C68.84 40.22 71.09 38.82 72.98 36.92C74.88 35.02 76.27 32.78 77.13 30.25C77.24 29.92 77.56 29.69 77.91 29.69L83.92 29.69C84.17 29.69 84.41 29.81 84.57 30.01C84.72 30.21 84.78 30.47 84.72 30.71C83.63 35.04 81.39 38.99 78.22 42.16C75.06 45.33 71.1 47.57 66.78 48.65C66.53 48.71 66.27 48.66 66.07 48.5C66.05 48.48 66.02 48.46 66 48.43L65.99 48.44ZM67.4 42.43L67.4 46.78C71.04 45.68 74.36 43.7 77.06 41C79.76 38.3 81.74 34.97 82.84 31.34L78.49 31.34C77.54 33.88 76.08 36.15 74.15 38.09C72.21 40.02 69.94 41.48 67.4 42.43Z" fill="#FFFFFF" fill-opacity="1.000000" fill-rule="nonzero"/>
		<path id="Vector" d="M37.01 19.45C36.98 19.43 36.96 19.4 36.94 19.38C36.78 19.18 36.73 18.92 36.79 18.67C37.87 14.35 40.12 10.39 43.28 7.22C46.45 4.06 50.4 1.81 54.73 0.73C54.98 0.67 55.24 0.73 55.43 0.88C55.63 1.04 55.75 1.28 55.75 1.53L55.75 7.53C55.75 7.89 55.53 8.2 55.19 8.31C52.66 9.17 50.42 10.57 48.52 12.46C46.63 14.36 45.23 16.6 44.37 19.13C44.26 19.47 43.95 19.69 43.59 19.69L37.59 19.69C37.37 19.69 37.16 19.61 37 19.45L37.01 19.45ZM54.1 2.61C50.47 3.7 47.15 5.69 44.44 8.39C41.74 11.09 39.76 14.41 38.67 18.05L43.01 18.05C43.96 15.5 45.42 13.24 47.36 11.3C49.29 9.37 51.56 7.91 54.1 6.96L54.1 2.61Z" fill="#FFFFFF" fill-opacity="1.000000" fill-rule="nonzero"/>
		<path id="Vector" d="M74.15 11.3C66.76 3.91 54.75 3.91 47.36 11.3C39.97 18.69 39.98 30.7 47.36 38.09C54.75 45.47 66.76 45.48 74.15 38.09C81.54 30.7 81.53 18.68 74.15 11.3Z" fill="#FFFFFF" fill-opacity="1.000000" fill-rule="nonzero"/>
		<path id="Vector" d="M53.98 31.54L67.58 31.45C68.16 31.45 68.62 31.91 68.63 32.49L68.63 32.97C68.64 33.54 68.17 34.01 67.6 34.02L53.99 34.11C53.42 34.11 52.95 33.65 52.95 33.07L52.95 32.59C52.94 32.02 53.4 31.55 53.98 31.54Z" fill="#110A1D" fill-opacity="1.000000" fill-rule="evenodd"/>
		<path id="Vector" d="M55.83 23.24C55.68 23.24 55.53 23.21 55.4 23.14L54.34 22.63C53.87 22.4 53.66 21.86 53.86 21.38L54.34 20.17C54.49 19.8 54.85 19.56 55.24 19.56C55.42 19.56 55.58 19.6 55.73 19.68L57 20.41C57.24 20.54 57.41 20.77 57.47 21.04C57.53 21.31 57.48 21.59 57.32 21.81L56.63 22.82C56.45 23.08 56.15 23.24 55.83 23.24L55.83 23.24Z" fill="#110A1D" fill-opacity="1.000000" fill-rule="nonzero"/>
		<path id="Vector" d="M65.63 23.18C65.31 23.18 65.01 23.02 64.82 22.76L64.14 21.8C63.98 21.57 63.92 21.29 63.98 21.02C64.03 20.76 64.2 20.52 64.44 20.39L65.74 19.62C65.89 19.53 66.06 19.49 66.23 19.48C66.63 19.48 66.99 19.72 67.14 20.09L67.64 21.26C67.83 21.74 67.63 22.29 67.17 22.52L66.06 23.07C65.93 23.14 65.78 23.18 65.63 23.18L65.63 23.18Z" fill="#110A1D" fill-opacity="1.000000" fill-rule="nonzero"/>
		<path id="Vector" d="M54.76 30.63C54.16 30.64 53.63 30.26 53.42 29.7L51.15 23.45C51.01 23.52 50.85 23.58 50.7 23.62C50.51 23.66 50.32 23.69 50.13 23.69C50.02 23.69 49.92 23.68 49.81 23.67C48.63 23.52 47.73 22.51 47.72 21.31C47.71 19.99 48.78 18.91 50.1 18.9C51.43 18.89 52.51 19.96 52.51 21.28C52.51 21.58 52.46 21.87 52.36 22.15C52.3 22.3 52.22 22.44 52.14 22.58L56.46 24.67L59.76 19.88C59.62 19.82 59.49 19.75 59.36 19.66C59.12 19.5 58.92 19.3 58.75 19.06C58.46 18.66 58.31 18.18 58.3 17.69C58.29 16.37 59.36 15.29 60.68 15.28C60.74 15.28 60.8 15.28 60.86 15.28C62.05 15.36 63 16.31 63.09 17.5C63.13 18.06 62.98 18.59 62.66 19.05C62.49 19.29 62.29 19.49 62.05 19.65C61.93 19.74 61.79 19.81 61.65 19.87L65.02 24.61L69.26 22.48C69.18 22.33 69.12 22.17 69.07 22.01C69.02 21.8 68.99 21.59 68.99 21.38C68.99 21.28 68.99 21.19 69 21.09C69.14 19.89 70.15 18.98 71.37 18.97C72.69 18.96 73.77 20.03 73.78 21.35C73.79 22.61 72.81 23.67 71.55 23.76L71.4 23.76C71.15 23.76 70.92 23.73 70.68 23.66C70.53 23.61 70.39 23.55 70.25 23.48L68.12 29.6C67.93 30.17 67.39 30.55 66.79 30.55L54.76 30.63L54.76 30.63Z" fill="#110A1D" fill-opacity="1.000000" fill-rule="nonzero"/>
		<path id="Vector" d="" fill="#9DADF2" fill-opacity="1.000000" fill-rule="nonzero"/>
		<path id="Vector" d="M1 0.19L60.12 0.19C60.61 0.19 61 0.58 61 1.07C61 1.55 60.6 1.95 60.12 1.95L1 1.95C0.51 1.95 0.12 1.55 0.12 1.07C0.12 0.58 0.52 0.19 1 0.19Z" fill="#FFFFFF" fill-opacity="1.000000" fill-rule="nonzero"/>
		<path id="Vector" d="" fill="#9DADF2" fill-opacity="1.000000" fill-rule="nonzero"/>
		<path id="Vector" d="M0.87 47.41L59.99 47.41C60.48 47.41 60.87 47.81 60.87 48.29C60.87 48.78 60.48 49.17 59.99 49.17L0.87 49.17C0.39 49.17 0 48.78 0 48.29C0 47.81 0.39 47.41 0.87 47.41Z" fill="#FFFFFF" fill-opacity="1.000000" fill-rule="nonzero"/>
	</g>
</svg>
