<svg width="598.783447" height="50.277588" viewBox="0 0 598.783 50.2776" fill="none" xmlns="http://www.w3.org/2000/svg" xmlns:xlink="http://www.w3.org/1999/xlink">
	<desc>
			Created with Pixso.
	</desc>
	<defs/>
	<g opacity="0.600000">
		<path id="Vector" d="M514.4 49.61C500.89 49.61 489.9 38.62 489.9 25.12C489.9 11.61 500.89 0.62 514.4 0.62C527.9 0.62 538.9 11.61 538.9 25.12C538.9 38.62 527.9 49.61 514.4 49.61ZM514.4 2.39C501.87 2.39 491.67 12.58 491.67 25.12C491.67 37.65 501.87 47.85 514.4 47.85C526.93 47.85 537.13 37.65 537.13 25.12C537.13 12.58 526.93 2.39 514.4 2.39Z" fill="#478BF9" fill-opacity="1.000000" fill-rule="nonzero"/>
		<path id="Vector" d="M574.28 49.61C573.79 49.61 573.4 49.22 573.4 48.73C573.4 48.25 573.8 47.85 574.28 47.85C586.82 47.85 597.01 37.66 597.01 25.12C597.01 12.59 586.82 2.39 574.28 2.39C573.79 2.39 573.4 2 573.4 1.51C573.4 1.03 573.8 0.63 574.28 0.63C587.79 0.63 598.78 11.62 598.78 25.13C598.78 38.63 587.79 49.62 574.28 49.62L574.28 49.61Z" fill="#478BF9" fill-opacity="1.000000" fill-rule="nonzero"/>
		<path id="Vector" d="M527.97 24.14L538.7 24.14L538.7 26.26L527.97 26.26L527.97 24.14Z" fill="#478BF9" fill-opacity="1.000000" fill-rule="evenodd"/>
		<path id="Vector" d="M491.03 24.14L501.76 24.14L501.76 26.26L491.03 26.26L491.03 24.14Z" fill="#478BF9" fill-opacity="1.000000" fill-rule="evenodd"/>
		<path id="Vector" d="M513.98 38.47L516.09 38.47L516.09 49.2L513.98 49.2L513.98 38.47Z" fill="#478BF9" fill-opacity="1.000000" fill-rule="evenodd"/>
		<path id="Vector" d="M513.98 1.21L516.09 1.21L516.09 11.93L513.98 11.93L513.98 1.21Z" fill="#478BF9" fill-opacity="1.000000" fill-rule="evenodd"/>
		<path id="Vector" d="M527.65 11.78C520.31 4.44 508.41 4.44 501.07 11.78C493.73 19.12 493.73 31.02 501.07 38.36C508.4 45.7 520.3 45.7 527.65 38.36C534.98 31.02 534.98 19.12 527.65 11.78ZM517.99 13.37C520.13 14.03 522.05 15.27 523.54 16.96L523.83 17.29L523.4 17.38C522.29 17.65 521.09 17.86 519.86 18.02L519.64 18.05L519.58 17.84C519.37 17.13 519.13 16.45 518.85 15.82C518.51 15.04 518.12 14.35 517.7 13.77L517.24 13.13L517.99 13.36L517.99 13.37ZM509.4 24.48L509.41 24.22C509.46 22.59 509.64 21.04 509.95 19.61L510 19.38L510.23 19.4C512.94 19.64 515.83 19.63 518.52 19.37L518.75 19.35L518.8 19.58C519.11 21.03 519.29 22.58 519.34 24.22L519.34 24.48L509.41 24.48L509.4 24.48ZM519.34 25.68L519.34 25.94C519.28 27.58 519.1 29.13 518.79 30.58L518.74 30.81L518.51 30.79C515.82 30.53 512.92 30.53 510.22 30.76L509.99 30.78L509.94 30.55C509.63 29.12 509.45 27.58 509.4 25.94L509.39 25.68L519.33 25.68L519.34 25.68ZM514.37 12.92C515.87 12.92 517.39 14.82 518.34 17.88L518.44 18.19L518.12 18.22C516.85 18.32 515.54 18.38 514.23 18.38C513.01 18.38 511.8 18.34 510.61 18.24L510.29 18.21L510.39 17.9C511.34 14.83 512.87 12.92 514.37 12.92L514.37 12.92ZM505.15 17.02C506.65 15.3 508.59 14.04 510.75 13.38L511.51 13.14L511.04 13.78C510.62 14.36 510.23 15.05 509.89 15.83C509.62 16.45 509.37 17.14 509.15 17.88L509.09 18.09L508.87 18.07C507.63 17.91 506.42 17.71 505.29 17.45L504.86 17.35L505.15 17.02ZM502.15 24.21C502.29 22.2 502.93 20.24 504.01 18.54L504.11 18.38L504.3 18.43C505.61 18.76 507.03 19.03 508.53 19.22L508.8 19.26L508.75 19.53C508.44 21.03 508.26 22.61 508.22 24.23L508.22 24.48L502.13 24.48L502.15 24.21L502.15 24.21ZM504.11 31.78L504.01 31.62C502.93 29.92 502.29 27.96 502.15 25.96L502.13 25.68L508.21 25.68L508.21 25.93C508.26 27.56 508.44 29.14 508.74 30.63L508.8 30.9L508.52 30.94C507.03 31.13 505.61 31.4 504.29 31.73L504.11 31.78L504.11 31.78ZM510.75 36.79C508.59 36.12 506.65 34.86 505.15 33.15L504.86 32.82L505.29 32.72C506.42 32.46 507.63 32.25 508.87 32.1L509.09 32.07L509.15 32.28C509.37 33.02 509.62 33.71 509.89 34.33C510.23 35.12 510.62 35.81 511.04 36.39L511.51 37.03L510.75 36.8L510.75 36.79ZM514.37 37.24C512.87 37.24 511.34 35.33 510.39 32.26L510.29 31.94L510.61 31.92C513.07 31.72 515.68 31.73 518.12 31.94L518.44 31.96L518.34 32.27C517.39 35.33 515.86 37.23 514.37 37.23L514.37 37.24ZM523.54 33.2C522.05 34.89 520.12 36.13 517.99 36.79L517.24 37.02L517.7 36.39C518.12 35.81 518.51 35.12 518.85 34.33C519.12 33.7 519.37 33.02 519.58 32.32L519.64 32.1L519.86 32.13C521.09 32.29 522.29 32.51 523.4 32.77L523.83 32.88L523.54 33.2ZM526.59 25.96C526.45 27.98 525.79 29.96 524.69 31.68L524.59 31.84L524.4 31.79C523.1 31.45 521.69 31.18 520.21 30.98L519.93 30.94L519.98 30.67C520.29 29.18 520.47 27.59 520.52 25.93L520.52 25.68L526.61 25.68L526.59 25.96L526.59 25.96ZM520.53 24.48L520.53 24.23C520.48 22.58 520.3 20.98 519.99 19.5L519.93 19.23L520.21 19.19C521.69 18.99 523.1 18.72 524.41 18.37L524.59 18.32L524.7 18.48C525.8 20.2 526.46 22.18 526.59 24.21L526.62 24.49L520.53 24.49L520.53 24.48Z" fill="#478BF9" fill-opacity="1.000000" fill-rule="nonzero"/>
		<path id="Vector" d="" fill="#478BF9" fill-opacity="1.000000" fill-rule="nonzero"/>
		<path id="Vector" d="M574.65 49.64L515.54 49.64C515.05 49.64 514.66 49.25 514.66 48.76C514.66 48.28 515.05 47.88 515.54 47.88L574.65 47.88C575.14 47.88 575.53 48.28 575.53 48.76C575.53 49.25 575.14 49.64 574.65 49.64Z" fill="#478BF9" fill-opacity="1.000000" fill-rule="nonzero"/>
		<path id="Vector" d="" fill="#478BF9" fill-opacity="1.000000" fill-rule="nonzero"/>
		<path id="Vector" d="M574.79 2.41L515.67 2.41C515.18 2.41 514.79 2.02 514.79 1.53C514.79 1.05 515.19 0.65 515.67 0.65L574.79 0.65C575.28 0.65 575.67 1.05 575.67 1.53C575.67 2.02 575.27 2.41 574.79 2.41Z" fill="#478BF9" fill-opacity="1.000000" fill-rule="nonzero"/>
		<path id="Vector" d="M436.45 42.16C426.81 32.53 426.81 16.85 436.45 7.22C446.08 -2.41 461.76 -2.41 471.39 7.22C481.02 16.85 481.02 32.53 471.39 42.16C461.76 51.8 446.08 51.8 436.45 42.16ZM470.22 8.38C461.23 -0.61 446.6 -0.61 437.61 8.38C428.62 17.38 428.62 32.01 437.61 41C446.61 49.99 461.24 49.99 470.22 41C479.22 32 479.22 17.37 470.22 8.38Z" fill="#FFFFFF" fill-opacity="1.000000" fill-rule="nonzero"/>
		<path id="Vector" d="M470.49 19.45C470.4 19.36 470.33 19.25 470.29 19.13C469.44 16.6 468.04 14.36 466.15 12.46C464.25 10.57 462.01 9.17 459.48 8.31C459.14 8.2 458.92 7.89 458.92 7.53L458.92 1.53C458.92 1.27 459.03 1.04 459.23 0.88C459.43 0.72 459.69 0.67 459.94 0.73C464.26 1.81 468.22 4.06 471.38 7.22C474.55 10.39 476.79 14.34 477.87 18.67C477.93 18.91 477.88 19.17 477.72 19.38C477.57 19.58 477.33 19.69 477.08 19.69L471.07 19.69C470.85 19.69 470.64 19.6 470.49 19.45L470.49 19.45ZM467.31 11.3C469.25 13.23 470.7 15.5 471.66 18.04L476 18.04C474.91 14.41 472.92 11.09 470.22 8.39C467.52 5.68 464.2 3.7 460.56 2.61L460.56 6.95C463.11 7.9 465.38 9.36 467.31 11.3L467.31 11.3Z" fill="#FFFFFF" fill-opacity="1.000000" fill-rule="nonzero"/>
		<path id="Vector" d="M436.45 42.16C433.28 39 431.04 35.04 429.95 30.72C429.89 30.47 429.95 30.21 430.1 30.01C430.26 29.81 430.5 29.69 430.75 29.69L436.76 29.69C437.11 29.69 437.43 29.92 437.54 30.25C438.39 32.78 439.79 35.03 441.69 36.92C443.58 38.82 445.83 40.22 448.36 41.07C448.69 41.19 448.92 41.5 448.92 41.85L448.92 47.86C448.92 48.11 448.8 48.35 448.6 48.51C448.4 48.66 448.14 48.72 447.89 48.66C443.57 47.57 439.61 45.33 436.45 42.17L436.45 42.16ZM431.83 31.34C432.93 34.97 434.91 38.3 437.61 41C440.31 43.7 443.64 45.68 447.27 46.78L447.27 42.43C444.73 41.48 442.46 40.02 440.52 38.09C438.59 36.15 437.13 33.89 436.18 31.34L431.83 31.34L431.83 31.34Z" fill="#FFFFFF" fill-opacity="1.000000" fill-rule="nonzero"/>
		<path id="Vector" d="M459.16 48.44C459.01 48.28 458.92 48.07 458.92 47.85L458.92 41.85C458.92 41.49 459.14 41.18 459.48 41.07C462.01 40.21 464.25 38.82 466.15 36.92C468.05 35.02 469.44 32.78 470.3 30.25C470.41 29.91 470.73 29.69 471.08 29.69L477.08 29.69C477.34 29.69 477.58 29.81 477.73 30.01C477.89 30.2 477.94 30.47 477.88 30.71C476.8 35.04 474.55 38.99 471.39 42.16C468.23 45.32 464.27 47.57 459.94 48.65C459.7 48.71 459.44 48.65 459.24 48.5C459.21 48.48 459.19 48.46 459.16 48.43L459.16 48.44ZM460.57 42.43L460.57 46.77C464.2 45.68 467.52 43.7 470.23 41C472.93 38.29 474.91 34.97 476 31.34L471.66 31.34C470.71 33.88 469.25 36.15 467.31 38.08C465.38 40.02 463.11 41.48 460.57 42.43Z" fill="#FFFFFF" fill-opacity="1.000000" fill-rule="nonzero"/>
		<path id="Vector" d="M430.17 19.45C430.15 19.43 430.12 19.4 430.11 19.38C429.95 19.18 429.89 18.91 429.96 18.67C431.04 14.34 433.28 10.38 436.45 7.22C439.61 4.06 443.57 1.81 447.9 0.73C448.14 0.67 448.4 0.72 448.6 0.88C448.8 1.04 448.92 1.27 448.92 1.53L448.92 7.53C448.92 7.89 448.69 8.2 448.36 8.31C445.83 9.17 443.58 10.56 441.69 12.46C439.79 14.36 438.39 16.6 437.54 19.13C437.42 19.47 437.11 19.69 436.76 19.69L430.75 19.69C430.53 19.69 430.32 19.61 430.17 19.45L430.17 19.45ZM447.27 2.61C443.63 3.7 440.31 5.69 437.61 8.39C434.91 11.09 432.93 14.41 431.83 18.05L436.18 18.05C437.12 15.5 438.58 13.24 440.52 11.3C442.46 9.36 444.73 7.9 447.27 6.95L447.27 2.61Z" fill="#FFFFFF" fill-opacity="1.000000" fill-rule="nonzero"/>
		<path id="Vector" d="M467.31 11.3C459.93 3.91 447.91 3.91 440.52 11.3C433.14 18.68 433.14 30.7 440.52 38.09C447.91 45.47 459.92 45.47 467.31 38.09C474.7 30.7 474.7 18.68 467.31 11.3Z" fill="#FFFFFF" fill-opacity="1.000000" fill-rule="nonzero"/>
		<path id="Vector" d="M447.14 31.54L460.75 31.45C461.32 31.45 461.79 31.91 461.8 32.48L461.8 32.97C461.8 33.54 461.34 34.01 460.77 34.01L447.16 34.1C446.59 34.11 446.12 33.65 446.12 33.07L446.11 32.59C446.11 32.01 446.57 31.55 447.14 31.54Z" fill="#110A1D" fill-opacity="1.000000" fill-rule="evenodd"/>
		<path id="Vector" d="M449 23.24C448.85 23.24 448.7 23.21 448.56 23.14L447.5 22.63C447.04 22.4 446.83 21.86 447.02 21.38L447.51 20.17C447.66 19.8 448.01 19.56 448.41 19.55C448.58 19.55 448.75 19.6 448.9 19.68L450.17 20.4C450.4 20.54 450.57 20.77 450.64 21.04C450.7 21.3 450.64 21.58 450.49 21.81L449.79 22.81C449.61 23.08 449.31 23.24 449 23.24L449 23.24Z" fill="#110A1D" fill-opacity="1.000000" fill-rule="nonzero"/>
		<path id="Vector" d="M458.79 23.17C458.47 23.17 458.17 23.02 457.99 22.76L457.3 21.79C457.14 21.57 457.09 21.29 457.14 21.02C457.2 20.76 457.37 20.52 457.6 20.38L458.91 19.62C459.06 19.53 459.23 19.48 459.4 19.48C459.8 19.48 460.15 19.72 460.31 20.08L460.8 21.26C461 21.74 460.79 22.29 460.34 22.52L459.23 23.07C459.09 23.14 458.94 23.17 458.79 23.17L458.79 23.17Z" fill="#110A1D" fill-opacity="1.000000" fill-rule="nonzero"/>
		<path id="Vector" d="M447.93 30.63C447.33 30.64 446.79 30.26 446.59 29.7L444.32 23.45C444.18 23.52 444.02 23.58 443.86 23.62C443.68 23.66 443.49 23.69 443.3 23.69C443.19 23.69 443.08 23.68 442.98 23.67C441.8 23.52 440.9 22.5 440.89 21.31C440.88 19.99 441.95 18.9 443.27 18.9C444.59 18.89 445.67 19.95 445.68 21.28C445.68 21.58 445.63 21.87 445.52 22.15C445.46 22.3 445.39 22.44 445.31 22.58L449.63 24.67L452.93 19.88C452.79 19.82 452.66 19.75 452.53 19.66C452.29 19.5 452.08 19.3 451.91 19.06C451.63 18.66 451.47 18.18 451.47 17.69C451.46 16.37 452.53 15.29 453.85 15.28C453.91 15.28 453.97 15.28 454.03 15.28C455.21 15.36 456.17 16.31 456.26 17.49C456.3 18.05 456.15 18.59 455.83 19.05C455.66 19.29 455.45 19.49 455.22 19.65C455.09 19.74 454.96 19.81 454.82 19.87L458.18 24.61L462.43 22.48C462.35 22.33 462.29 22.17 462.24 22C462.19 21.8 462.15 21.59 462.15 21.38C462.15 21.28 462.16 21.19 462.17 21.09C462.3 19.89 463.32 18.97 464.53 18.97C465.85 18.96 466.94 20.03 466.94 21.35C466.95 22.61 465.97 23.67 464.72 23.75L464.57 23.76C464.32 23.76 464.08 23.73 463.85 23.66C463.7 23.61 463.56 23.55 463.42 23.48L461.29 29.6C461.09 30.17 460.56 30.55 459.96 30.55L447.93 30.63L447.93 30.63Z" fill="#110A1D" fill-opacity="1.000000" fill-rule="nonzero"/>
		<path id="Vector" d="M391.01 49.39C384.74 49.39 378.46 47 373.68 42.22C364.13 32.67 364.13 17.13 373.68 7.57C378.31 2.94 384.47 0.4 391.01 0.4C397.56 0.4 403.71 2.94 408.34 7.57C417.9 17.13 417.9 32.67 408.34 42.22C403.57 47 397.29 49.39 391.01 49.39ZM374.97 40.94C383.81 49.78 398.2 49.78 407.05 40.94C415.89 32.09 415.89 17.7 407.05 8.86C402.76 4.57 397.07 2.22 391.01 2.22C384.95 2.22 379.25 4.58 374.96 8.86C366.12 17.7 366.12 32.09 374.96 40.94L374.97 40.94Z" fill="#7DDACF" fill-opacity="1.000000" fill-rule="nonzero"/>
		<path id="Vector" d="M391.92 19.74L387.38 26.1L390.1 26.1L390.1 30.64L394.64 24.28L391.92 24.28L391.92 19.74Z" fill="#7DDACF" fill-opacity="1.000000" fill-rule="nonzero"/>
		<path id="Vector" d="M391.01 16.21C386.04 16.21 382 20.24 382 25.21C382 30.18 386.04 34.2 391.01 34.2C395.98 34.2 400.01 30.17 400.01 25.21C400.01 20.25 395.98 16.21 391.01 16.21ZM391.01 33.09C386.64 33.09 383.1 29.55 383.1 25.19C383.1 20.83 386.64 17.29 391.01 17.29C395.37 17.29 398.91 20.83 398.91 25.19C398.91 29.55 395.37 33.09 391.01 33.09Z" fill="#7DDACF" fill-opacity="1.000000" fill-rule="nonzero"/>
		<path id="Vector" d="M404.93 10.98C401.21 7.26 396.27 5.22 391.01 5.22C385.75 5.22 380.81 7.27 377.09 10.98C369.42 18.65 369.42 31.14 377.09 38.82C380.93 42.66 385.97 44.58 391.01 44.58C396.05 44.58 401.09 42.66 404.93 38.82C412.6 31.15 412.6 18.66 404.93 10.98ZM391.01 37.42C384.28 37.42 378.8 31.94 378.8 25.22C378.8 22.24 379.86 19.51 381.63 17.38L380.14 15.89C379.71 15.47 379.71 14.77 380.14 14.34C380.57 13.91 381.26 13.91 381.7 14.34L383.19 15.83C385.04 14.28 387.37 13.26 389.91 13.05L389.91 12.04L388.9 12.04C388.01 12.04 387.28 11.3 387.28 10.41L387.28 9.56C387.28 8.66 388.01 7.94 388.9 7.94L393.12 7.94C394.01 7.94 394.75 8.66 394.75 9.56L394.75 10.41C394.75 11.3 394.01 12.04 393.12 12.04L392.11 12.04L392.11 13.05C394.66 13.27 396.99 14.29 398.84 15.83L400.33 14.34C400.76 13.91 401.45 13.91 401.88 14.34C402.31 14.77 402.31 15.46 401.88 15.89L400.39 17.38C402.16 19.51 403.23 22.24 403.23 25.22C403.23 31.94 397.75 37.42 391.02 37.42L391.01 37.42Z" fill="#7DDACF" fill-opacity="1.000000" fill-rule="nonzero"/>
		<path id="Vector" d="M332.55 49.88C319.04 49.88 308.06 38.89 308.06 25.39C308.06 11.89 319.05 0.9 332.55 0.9C346.05 0.9 357.04 11.89 357.04 25.39C357.04 38.89 346.05 49.88 332.55 49.88ZM332.55 2.53C319.95 2.53 309.69 12.79 309.69 25.39C309.69 38 319.95 48.25 332.55 48.25C345.16 48.25 355.41 38 355.41 25.39C355.41 12.79 345.16 2.53 332.55 2.53Z" fill="#FFFFFF" fill-opacity="1.000000" fill-rule="nonzero"/>
		<path id="Vector" d="M340.95 15.5L348.53 7.92L350.02 9.41L342.44 16.99L340.95 15.5Z" fill="#FFFFFF" fill-opacity="1.000000" fill-rule="evenodd"/>
		<path id="Vector" d="M314.85 41.6L322.43 34.02L323.92 35.51L316.34 43.09L314.85 41.6Z" fill="#FFFFFF" fill-opacity="1.000000" fill-rule="evenodd"/>
		<path id="Vector" d="M341.18 35.5L342.67 34.01L350.25 41.6L348.76 43.09L341.18 35.5Z" fill="#FFFFFF" fill-opacity="1.000000" fill-rule="evenodd"/>
		<path id="Vector" d="M314.86 9.18L316.35 7.69L323.93 15.26L322.43 16.76L314.86 9.18Z" fill="#FFFFFF" fill-opacity="1.000000" fill-rule="evenodd"/>
		<path id="Vector" d="M338.53 26.05C339.02 25.56 339.02 24.76 338.53 24.27L337.48 23.23C336.99 22.73 336.19 22.73 335.7 23.23L335.13 23.79L334.48 23.14C333.99 22.64 333.19 22.64 332.7 23.14L332.13 23.71L331.48 23.05C330.99 22.56 330.19 22.56 329.7 23.05L326.23 26.52C326.2 26.55 326.2 26.59 326.23 26.62C326.69 27.08 327.45 27.08 327.92 26.62L330.15 24.38C330.4 24.14 330.79 24.14 331.03 24.38L331.19 24.55C331.22 24.58 331.22 24.63 331.19 24.66L329.33 26.52C329.3 26.55 329.3 26.59 329.33 26.62C329.79 27.08 330.54 27.08 331.01 26.62L333.16 24.48C333.4 24.23 333.79 24.23 334.03 24.48L334.2 24.64C334.22 24.67 334.22 24.71 334.2 24.74L332.4 26.54C332.37 26.56 332.37 26.61 332.4 26.64C332.86 27.1 333.62 27.1 334.08 26.64L336.16 24.56C336.4 24.32 336.79 24.32 337.03 24.56L337.39 24.92C337.53 25.06 337.53 25.29 337.39 25.43L337.33 25.48C337.19 25.62 336.96 25.62 336.82 25.48L336.36 25.03C336.34 25 336.3 25 336.27 25.03L335.47 25.82C335.45 25.84 335.45 25.89 335.47 25.92L336.19 26.63C336.68 27.13 337.48 27.13 337.97 26.63L338.54 26.07L338.53 26.05Z" fill="#FFFFFF" fill-opacity="1.000000" fill-rule="nonzero"/>
		<path id="Vector" d="M332.55 6.61C322.18 6.61 313.77 15.01 313.77 25.39C313.77 35.76 322.18 44.17 332.55 44.17C342.92 44.17 351.33 35.76 351.33 25.39C351.33 15.01 342.92 6.61 332.55 6.61ZM333.32 12.41C336.33 12.58 339.07 13.78 341.19 15.67L338.48 18.38C337.06 17.18 335.28 16.4 333.32 16.24L333.32 12.41ZM331.79 12.41L331.79 16.24C329.83 16.4 328.04 17.18 326.63 18.38L323.92 15.67C326.04 13.78 328.78 12.58 331.79 12.41ZM322.84 16.75L325.55 19.46C324.35 20.87 323.57 22.66 323.41 24.62L319.57 24.62C319.75 21.6 320.95 18.87 322.84 16.75ZM319.57 26.15L323.41 26.15C323.57 28.11 324.35 29.89 325.55 31.31L322.84 34.02C320.95 31.9 319.75 29.16 319.57 26.15ZM331.79 38.36C328.78 38.19 326.04 36.98 323.92 35.1L326.63 32.39C328.04 33.59 329.83 34.36 331.79 34.53L331.79 38.36ZM324.66 25.38C324.66 21.02 328.19 17.49 332.55 17.49C336.91 17.49 340.44 21.02 340.44 25.38C340.44 29.74 336.91 33.27 332.55 33.27C328.19 33.27 324.66 29.74 324.66 25.38ZM333.32 38.36L333.32 34.53C335.28 34.37 337.06 33.59 338.48 32.39L341.19 35.1C339.07 36.98 336.33 38.19 333.32 38.36ZM342.27 34.02L339.56 31.31C340.76 29.89 341.53 28.11 341.7 26.15L345.53 26.15C345.36 29.16 344.15 31.9 342.27 34.02ZM341.7 24.62C341.54 22.66 340.76 20.87 339.56 19.46L342.27 16.75C344.15 18.87 345.36 21.6 345.53 24.62L341.7 24.62Z" fill="#FFFFFF" fill-opacity="1.000000" fill-rule="nonzero"/>
		<path id="Vector" d="M206.33 49.61C192.83 49.61 181.84 38.62 181.84 25.12C181.84 11.61 192.83 0.62 206.33 0.62C219.84 0.62 230.83 11.61 230.83 25.12C230.83 38.62 219.84 49.61 206.33 49.61ZM206.33 2.39C193.8 2.39 183.6 12.58 183.6 25.12C183.6 37.65 193.8 47.85 206.33 47.85C218.87 47.85 229.07 37.65 229.07 25.12C229.07 12.58 218.87 2.39 206.33 2.39Z" fill="#478BF9" fill-opacity="1.000000" fill-rule="nonzero"/>
		<path id="Vector" d="M266.22 49.61C265.73 49.61 265.34 49.22 265.34 48.73C265.34 48.25 265.73 47.85 266.22 47.85C278.75 47.85 288.95 37.66 288.95 25.12C288.95 12.59 278.75 2.39 266.22 2.39C265.73 2.39 265.34 2 265.34 1.51C265.34 1.03 265.73 0.63 266.22 0.63C279.72 0.63 290.71 11.62 290.71 25.13C290.71 38.63 279.72 49.62 266.22 49.62L266.22 49.61Z" fill="#478BF9" fill-opacity="1.000000" fill-rule="nonzero"/>
		<path id="Vector" d="M219.9 24.14L230.63 24.14L230.63 26.26L219.9 26.26L219.9 24.14Z" fill="#478BF9" fill-opacity="1.000000" fill-rule="evenodd"/>
		<path id="Vector" d="M182.97 24.14L193.7 24.14L193.7 26.26L182.97 26.26L182.97 24.14Z" fill="#478BF9" fill-opacity="1.000000" fill-rule="evenodd"/>
		<path id="Vector" d="M205.91 38.47L208.03 38.47L208.03 49.2L205.91 49.2L205.91 38.47Z" fill="#478BF9" fill-opacity="1.000000" fill-rule="evenodd"/>
		<path id="Vector" d="M205.91 1.21L208.03 1.21L208.03 11.93L205.91 11.93L205.91 1.21Z" fill="#478BF9" fill-opacity="1.000000" fill-rule="evenodd"/>
		<path id="Vector" d="M219.58 11.78C212.24 4.44 200.34 4.44 193 11.78C185.66 19.12 185.66 31.02 193 38.36C200.34 45.7 212.24 45.7 219.58 38.36C226.92 31.02 226.92 19.12 219.58 11.78ZM209.92 13.37C212.06 14.03 213.98 15.27 215.47 16.96L215.76 17.29L215.34 17.38C214.22 17.65 213.03 17.86 211.8 18.02L211.57 18.05L211.51 17.84C211.31 17.13 211.07 16.45 210.79 15.82C210.44 15.04 210.06 14.35 209.64 13.77L209.17 13.13L209.92 13.36L209.92 13.37ZM201.34 24.48L201.35 24.22C201.4 22.59 201.58 21.04 201.89 19.61L201.93 19.38L202.16 19.4C204.87 19.64 207.76 19.63 210.45 19.37L210.68 19.35L210.74 19.58C211.05 21.03 211.23 22.58 211.28 24.22L211.28 24.48L201.34 24.48L201.34 24.48ZM211.28 25.68L211.28 25.94C211.22 27.58 211.04 29.13 210.73 30.58L210.67 30.81L210.44 30.79C207.75 30.53 204.86 30.53 202.15 30.76L201.92 30.78L201.88 30.55C201.57 29.12 201.39 27.58 201.34 25.94L201.33 25.68L211.27 25.68L211.28 25.68ZM206.31 12.92C207.8 12.92 209.33 14.82 210.28 17.88L210.38 18.19L210.05 18.22C208.79 18.32 207.48 18.38 206.17 18.38C204.95 18.38 203.73 18.34 202.55 18.24L202.23 18.21L202.32 17.9C203.28 14.83 204.8 12.92 206.31 12.92L206.31 12.92ZM197.09 17.02C198.59 15.3 200.52 14.04 202.69 13.38L203.45 13.14L202.98 13.78C202.56 14.36 202.16 15.05 201.83 15.83C201.55 16.45 201.31 17.14 201.09 17.88L201.03 18.09L200.81 18.07C199.56 17.91 198.36 17.71 197.23 17.45L196.8 17.35L197.09 17.02ZM194.08 24.21C194.23 22.2 194.87 20.24 195.94 18.54L196.05 18.38L196.23 18.43C197.55 18.76 198.97 19.03 200.46 19.22L200.74 19.26L200.68 19.53C200.37 21.03 200.2 22.61 200.15 24.23L200.15 24.48L194.07 24.48L194.09 24.21L194.08 24.21ZM196.05 31.78L195.94 31.62C194.87 29.92 194.23 27.96 194.08 25.96L194.06 25.68L200.14 25.68L200.14 25.93C200.19 27.56 200.37 29.14 200.68 30.63L200.73 30.9L200.46 30.94C198.97 31.13 197.54 31.4 196.23 31.73L196.04 31.78L196.05 31.78ZM202.69 36.79C200.52 36.12 198.59 34.86 197.09 33.15L196.8 32.82L197.23 32.72C198.36 32.46 199.56 32.25 200.81 32.1L201.03 32.07L201.09 32.28C201.31 33.02 201.55 33.71 201.83 34.33C202.17 35.12 202.56 35.81 202.98 36.39L203.45 37.03L202.69 36.8L202.69 36.79ZM206.31 37.24C204.8 37.24 203.28 35.33 202.32 32.26L202.23 31.94L202.55 31.92C205 31.72 207.62 31.73 210.05 31.94L210.38 31.96L210.28 32.27C209.32 35.33 207.8 37.23 206.31 37.23L206.31 37.24ZM215.47 33.2C213.98 34.89 212.06 36.13 209.92 36.79L209.17 37.02L209.64 36.39C210.06 35.81 210.44 35.12 210.79 34.33C211.06 33.7 211.31 33.02 211.51 32.32L211.57 32.1L211.8 32.13C213.03 32.29 214.22 32.51 215.34 32.77L215.76 32.88L215.47 33.2ZM218.53 25.96C218.38 27.98 217.73 29.96 216.63 31.68L216.52 31.84L216.34 31.79C215.04 31.45 213.62 31.18 212.14 30.98L211.86 30.94L211.92 30.67C212.23 29.18 212.41 27.59 212.45 25.93L212.45 25.68L218.54 25.68L218.52 25.96L218.53 25.96ZM212.46 24.48L212.46 24.23C212.41 22.58 212.23 20.98 211.92 19.5L211.87 19.23L212.15 19.19C213.63 18.99 215.04 18.72 216.34 18.37L216.53 18.32L216.63 18.48C217.73 20.2 218.39 22.18 218.53 24.21L218.55 24.49L212.47 24.49L212.46 24.48Z" fill="#478BF9" fill-opacity="1.000000" fill-rule="nonzero"/>
		<path id="Vector" d="" fill="#478BF9" fill-opacity="1.000000" fill-rule="nonzero"/>
		<path id="Vector" d="M266.59 49.64L207.47 49.64C206.98 49.64 206.59 49.25 206.59 48.76C206.59 48.28 206.99 47.88 207.47 47.88L266.59 47.88C267.08 47.88 267.47 48.28 267.47 48.76C267.47 49.25 267.07 49.64 266.59 49.64Z" fill="#478BF9" fill-opacity="1.000000" fill-rule="nonzero"/>
		<path id="Vector" d="" fill="#478BF9" fill-opacity="1.000000" fill-rule="nonzero"/>
		<path id="Vector" d="M266.72 2.41L207.61 2.41C207.12 2.41 206.73 2.02 206.73 1.53C206.73 1.05 207.12 0.65 207.61 0.65L266.72 0.65C267.21 0.65 267.6 1.05 267.6 1.53C267.6 2.02 267.21 2.41 266.72 2.41Z" fill="#478BF9" fill-opacity="1.000000" fill-rule="nonzero"/>
		<path id="Vector" d="M128.38 43.05C118.75 33.41 118.75 17.74 128.38 8.11C138.02 -1.53 153.69 -1.53 163.33 8.11C172.96 17.74 172.96 33.41 163.33 43.05C153.69 52.68 138.02 52.68 128.38 43.05ZM162.16 9.27C153.17 0.28 138.54 0.28 129.55 9.27C120.56 18.26 120.56 32.89 129.55 41.88C138.54 50.87 153.17 50.87 162.16 41.88C171.15 32.89 171.15 18.26 162.16 9.27Z" fill="#FFFFFF" fill-opacity="1.000000" fill-rule="nonzero"/>
		<path id="Vector" d="M162.43 20.33C162.34 20.25 162.27 20.14 162.23 20.02C161.38 17.49 159.98 15.24 158.08 13.35C156.19 11.45 153.94 10.05 151.41 9.2C151.08 9.08 150.85 8.77 150.85 8.42L150.85 2.41C150.85 2.16 150.97 1.92 151.17 1.76C151.37 1.61 151.63 1.55 151.87 1.61C156.2 2.7 160.16 4.94 163.32 8.1C166.48 11.27 168.73 15.23 169.81 19.55C169.87 19.8 169.81 20.06 169.66 20.26C169.5 20.46 169.26 20.58 169.01 20.58L163 20.58C162.78 20.58 162.57 20.48 162.42 20.33L162.43 20.33ZM159.25 12.18C161.18 14.12 162.64 16.38 163.59 18.93L167.94 18.93C166.84 15.29 164.86 11.97 162.16 9.27C159.46 6.57 156.13 4.58 152.5 3.49L152.5 7.84C155.04 8.79 157.31 10.25 159.25 12.18L159.25 12.18Z" fill="#FFFFFF" fill-opacity="1.000000" fill-rule="nonzero"/>
		<path id="Vector" d="M128.38 43.05C125.22 39.88 122.97 35.92 121.89 31.6C121.83 31.35 121.89 31.09 122.04 30.89C122.2 30.69 122.44 30.58 122.69 30.58L128.69 30.58C129.05 30.58 129.36 30.8 129.47 31.14C130.33 33.67 131.73 35.91 133.62 37.81C135.52 39.7 137.76 41.1 140.29 41.96C140.63 42.07 140.85 42.38 140.85 42.74L140.85 48.74C140.85 49 140.74 49.23 140.54 49.39C140.34 49.55 140.08 49.6 139.83 49.54C135.5 48.46 131.55 46.21 128.38 43.05L128.38 43.05ZM123.77 32.22C124.86 35.86 126.85 39.18 129.55 41.88C132.25 44.58 135.57 46.57 139.21 47.66L139.21 43.32C136.66 42.37 134.39 40.91 132.46 38.97C130.52 37.04 129.06 34.77 128.11 32.23L123.77 32.23L123.77 32.22Z" fill="#FFFFFF" fill-opacity="1.000000" fill-rule="nonzero"/>
		<path id="Vector" d="M151.1 49.32C150.94 49.17 150.85 48.96 150.85 48.74L150.85 42.73C150.85 42.38 151.08 42.07 151.41 41.95C153.95 41.1 156.19 39.7 158.09 37.8C159.98 35.91 161.38 33.66 162.23 31.13C162.35 30.8 162.66 30.57 163.01 30.57L169.02 30.57C169.27 30.57 169.51 30.69 169.67 30.89C169.83 31.09 169.88 31.35 169.82 31.59C168.73 35.92 166.49 39.88 163.33 43.04C160.16 46.21 156.2 48.45 151.88 49.53C151.63 49.6 151.37 49.54 151.17 49.38C151.15 49.36 151.12 49.34 151.1 49.32L151.1 49.32ZM152.5 43.31L152.5 47.66C156.14 46.57 159.46 44.58 162.16 41.88C164.86 39.18 166.85 35.86 167.94 32.22L163.6 32.22C162.65 34.76 161.19 37.03 159.25 38.97C157.31 40.9 155.05 42.37 152.5 43.31Z" fill="#FFFFFF" fill-opacity="1.000000" fill-rule="nonzero"/>
		<path id="Vector" d="M122.11 20.33C122.08 20.31 122.06 20.29 122.04 20.26C121.88 20.06 121.83 19.8 121.89 19.55C122.97 15.23 125.22 11.27 128.38 8.11C131.55 4.94 135.5 2.7 139.83 1.61C140.08 1.55 140.34 1.61 140.53 1.76C140.73 1.92 140.85 2.16 140.85 2.41L140.85 8.42C140.85 8.77 140.63 9.08 140.29 9.2C137.76 10.05 135.52 11.45 133.62 13.35C131.73 15.24 130.33 17.49 129.47 20.02C129.36 20.35 129.05 20.58 128.69 20.58L122.69 20.58C122.47 20.58 122.26 20.49 122.1 20.34L122.11 20.33ZM139.2 3.49C135.57 4.59 132.25 6.57 129.54 9.27C126.84 11.97 124.86 15.3 123.77 18.93L128.11 18.93C129.06 16.39 130.52 14.12 132.46 12.18C134.39 10.25 136.66 8.79 139.2 7.84L139.2 3.49Z" fill="#FFFFFF" fill-opacity="1.000000" fill-rule="nonzero"/>
		<path id="Vector" d="M159.25 12.18C151.86 4.8 139.84 4.79 132.46 12.18C125.07 19.57 125.07 31.59 132.46 38.97C139.84 46.36 151.86 46.36 159.25 38.97C166.63 31.58 166.63 19.57 159.25 12.18Z" fill="#FFFFFF" fill-opacity="1.000000" fill-rule="nonzero"/>
		<path id="Vector" d="M139.08 32.43L152.69 32.34C153.26 32.33 153.73 32.79 153.73 33.37L153.73 33.85C153.74 34.43 153.28 34.89 152.7 34.9L139.1 34.99C138.52 34.99 138.06 34.53 138.05 33.96L138.05 33.47C138.04 32.9 138.5 32.43 139.08 32.43Z" fill="#110A1D" fill-opacity="1.000000" fill-rule="evenodd"/>
		<path id="Vector" d="M140.93 24.12C140.78 24.12 140.64 24.09 140.5 24.02L139.44 23.51C138.98 23.29 138.77 22.74 138.96 22.27L139.45 21.05C139.6 20.68 139.95 20.44 140.35 20.44C140.52 20.44 140.69 20.48 140.84 20.57L142.1 21.29C142.34 21.42 142.51 21.65 142.57 21.92C142.63 22.19 142.58 22.47 142.42 22.69L141.73 23.7C141.55 23.96 141.25 24.12 140.93 24.12L140.93 24.12Z" fill="#110A1D" fill-opacity="1.000000" fill-rule="nonzero"/>
		<path id="Vector" d="M150.73 24.06C150.41 24.06 150.11 23.91 149.92 23.65L149.24 22.68C149.08 22.46 149.02 22.17 149.08 21.91C149.13 21.64 149.3 21.41 149.54 21.27L150.85 20.5C150.99 20.41 151.16 20.37 151.33 20.37C151.73 20.36 152.09 20.6 152.24 20.97L152.74 22.15C152.93 22.62 152.73 23.17 152.27 23.4L151.16 23.96C151.03 24.02 150.88 24.06 150.73 24.06L150.73 24.06Z" fill="#110A1D" fill-opacity="1.000000" fill-rule="nonzero"/>
		<path id="Vector" d="M139.86 31.52C139.27 31.52 138.73 31.15 138.53 30.59L136.26 24.34C136.11 24.41 135.96 24.46 135.8 24.5C135.61 24.55 135.43 24.57 135.24 24.57C135.13 24.57 135.02 24.57 134.91 24.55C133.73 24.4 132.83 23.39 132.83 22.19C132.82 20.87 133.89 19.79 135.21 19.78C136.53 19.77 137.61 20.84 137.62 22.16C137.62 22.46 137.57 22.76 137.46 23.03C137.4 23.18 137.33 23.32 137.24 23.46L141.56 25.55L144.86 20.76C144.73 20.71 144.59 20.63 144.47 20.55C144.23 20.38 144.02 20.18 143.85 19.95C143.56 19.54 143.41 19.07 143.41 18.58C143.4 17.25 144.47 16.17 145.79 16.16C145.85 16.16 145.91 16.16 145.96 16.17C147.15 16.25 148.1 17.2 148.19 18.38C148.23 18.94 148.08 19.48 147.76 19.93C147.6 20.17 147.39 20.37 147.15 20.54C147.03 20.62 146.89 20.7 146.76 20.75L150.12 25.49L154.37 23.37C154.29 23.21 154.22 23.06 154.18 22.89C154.12 22.69 154.09 22.48 154.09 22.26C154.09 22.17 154.09 22.07 154.1 21.98C154.24 20.77 155.26 19.86 156.47 19.85C157.79 19.84 158.87 20.91 158.88 22.23C158.89 23.49 157.91 24.55 156.65 24.64L156.5 24.64C156.26 24.64 156.02 24.61 155.79 24.54C155.64 24.49 155.49 24.43 155.36 24.36L153.22 30.49C153.03 31.05 152.49 31.43 151.9 31.44L139.86 31.52L139.86 31.52Z" fill="#110A1D" fill-opacity="1.000000" fill-rule="nonzero"/>
		<path id="Vector" d="M82.95 49.86C76.67 49.86 70.4 47.47 65.62 42.69C56.06 33.13 56.06 17.59 65.62 8.04C70.25 3.41 76.4 0.86 82.95 0.86C89.49 0.86 95.64 3.41 100.28 8.04C109.83 17.59 109.83 33.13 100.28 42.69C95.5 47.46 89.22 49.86 82.95 49.86ZM66.9 41.4C75.75 50.25 90.14 50.25 98.98 41.4C107.83 32.56 107.83 18.17 98.98 9.32C94.7 5.04 89 2.68 82.94 2.68C76.88 2.68 71.19 5.04 66.9 9.32C58.05 18.17 58.05 32.56 66.9 41.4L66.9 41.4Z" fill="#7DDACF" fill-opacity="1.000000" fill-rule="nonzero"/>
		<path id="Vector" d="M83.85 20.2L79.32 26.56L82.04 26.56L82.04 31.1L86.58 24.75L83.85 24.75L83.85 20.2Z" fill="#7DDACF" fill-opacity="1.000000" fill-rule="nonzero"/>
		<path id="Vector" d="M82.94 16.67C77.97 16.67 73.94 20.7 73.94 25.67C73.94 30.64 77.97 34.67 82.94 34.67C87.91 34.67 91.95 30.63 91.95 25.67C91.95 20.71 87.91 16.67 82.94 16.67ZM82.94 33.56C78.58 33.56 75.04 30.02 75.04 25.65C75.04 21.29 78.58 17.75 82.94 17.75C87.31 17.75 90.85 21.29 90.85 25.65C90.85 30.02 87.31 33.56 82.94 33.56Z" fill="#7DDACF" fill-opacity="1.000000" fill-rule="nonzero"/>
		<path id="Vector" d="M96.86 11.45C93.15 7.73 88.2 5.68 82.94 5.68C77.68 5.68 72.75 7.73 69.03 11.45C61.35 19.12 61.35 31.61 69.03 39.28C72.86 43.12 77.9 45.04 82.94 45.04C87.99 45.04 93.02 43.12 96.86 39.28C104.53 31.61 104.53 19.12 96.86 11.45ZM82.94 37.89C76.21 37.89 70.73 32.41 70.73 25.68C70.73 22.7 71.8 19.98 73.57 17.85L72.08 16.36C71.65 15.93 71.65 15.23 72.08 14.8C72.5 14.37 73.2 14.37 73.63 14.8L75.12 16.29C76.97 14.75 79.31 13.73 81.85 13.51L81.85 12.5L80.84 12.5C79.95 12.5 79.21 11.77 79.21 10.88L79.21 10.03C79.21 9.13 79.95 8.4 80.84 8.4L85.06 8.4C85.95 8.4 86.68 9.13 86.68 10.03L86.68 10.88C86.68 11.77 85.95 12.5 85.06 12.5L84.05 12.5L84.05 13.51C86.6 13.73 88.92 14.75 90.77 16.29L92.27 14.8C92.69 14.37 93.39 14.37 93.82 14.8C94.25 15.23 94.25 15.92 93.82 16.36L92.33 17.85C94.1 19.98 95.16 22.7 95.16 25.68C95.16 32.41 89.68 37.89 82.95 37.89L82.94 37.89Z" fill="#7DDACF" fill-opacity="1.000000" fill-rule="nonzero"/>
		<path id="Vector" d="M24.49 49.39C10.98 49.39 0 38.4 0 24.9C0 11.4 10.99 0.41 24.49 0.41C37.99 0.41 48.98 11.4 48.98 24.9C48.98 38.4 37.99 49.39 24.49 49.39ZM24.49 2.04C11.88 2.04 1.63 12.29 1.63 24.9C1.63 37.5 11.88 47.76 24.49 47.76C37.09 47.76 47.35 37.5 47.35 24.9C47.35 12.29 37.09 2.04 24.49 2.04Z" fill="#FFFFFF" fill-opacity="1.000000" fill-rule="nonzero"/>
		<path id="Vector" d="M32.88 15L40.47 7.42L41.96 8.91L34.38 16.5L32.88 15Z" fill="#FFFFFF" fill-opacity="1.000000" fill-rule="evenodd"/>
		<path id="Vector" d="M6.79 41.1L14.37 33.52L15.86 35.01L8.28 42.59L6.79 41.1Z" fill="#FFFFFF" fill-opacity="1.000000" fill-rule="evenodd"/>
		<path id="Vector" d="M33.11 35.01L34.61 33.52L42.19 41.1L40.7 42.59L33.11 35.01Z" fill="#FFFFFF" fill-opacity="1.000000" fill-rule="evenodd"/>
		<path id="Vector" d="M6.79 8.68L8.28 7.19L15.86 14.77L14.37 16.26L6.79 8.68Z" fill="#FFFFFF" fill-opacity="1.000000" fill-rule="evenodd"/>
		<path id="Vector" d="M30.46 25.56C30.96 25.06 30.96 24.26 30.46 23.78L29.42 22.73C28.92 22.24 28.12 22.24 27.63 22.73L27.07 23.3L26.42 22.64C25.92 22.15 25.12 22.15 24.64 22.64L24.07 23.22L23.42 22.56C22.92 22.06 22.12 22.06 21.64 22.56L18.16 26.03C18.14 26.06 18.14 26.1 18.16 26.13C18.63 26.59 19.38 26.59 19.85 26.13L22.09 23.89C22.33 23.65 22.72 23.65 22.96 23.89L23.13 24.05C23.16 24.08 23.16 24.13 23.13 24.16L21.26 26.03C21.23 26.06 21.23 26.1 21.26 26.13C21.72 26.59 22.48 26.59 22.95 26.13L25.09 23.98C25.34 23.74 25.73 23.74 25.97 23.98L26.13 24.15C26.16 24.17 26.16 24.21 26.13 24.24L24.33 26.04C24.31 26.07 24.31 26.11 24.33 26.14C24.79 26.61 25.55 26.61 26.02 26.14L28.09 24.07C28.33 23.83 28.73 23.83 28.97 24.07L29.32 24.42C29.46 24.56 29.46 24.79 29.32 24.93L29.27 24.99C29.13 25.13 28.9 25.13 28.76 24.99L28.3 24.53C28.27 24.51 28.23 24.51 28.2 24.53L27.41 25.32C27.38 25.35 27.38 25.39 27.41 25.42L28.12 26.14C28.62 26.63 29.42 26.63 29.9 26.14L30.47 25.57L30.46 25.56Z" fill="#FFFFFF" fill-opacity="1.000000" fill-rule="nonzero"/>
		<path id="Vector" d="M24.49 6.11C14.11 6.11 5.71 14.52 5.71 24.89C5.71 35.26 14.11 43.67 24.49 43.67C34.86 43.67 43.27 35.26 43.27 24.89C43.27 14.52 34.86 6.11 24.49 6.11ZM25.25 11.91C28.27 12.09 31.01 13.29 33.12 15.17L30.41 17.88C29 16.69 27.21 15.91 25.25 15.74L25.25 11.91ZM23.72 11.91L23.72 15.74C21.76 15.9 19.98 16.69 18.56 17.88L15.85 15.17C17.97 13.29 20.71 12.09 23.72 11.91ZM14.77 16.25L17.48 18.96C16.29 20.38 15.51 22.17 15.34 24.13L11.51 24.13C11.69 21.11 12.89 18.37 14.77 16.25ZM11.51 25.65L15.34 25.65C15.5 27.61 16.29 29.4 17.48 30.81L14.77 33.53C12.89 31.41 11.69 28.67 11.51 25.65ZM23.72 37.87C20.71 37.69 17.97 36.49 15.85 34.61L18.56 31.89C19.98 33.09 21.76 33.87 23.72 34.03L23.72 37.87ZM16.59 24.89C16.59 20.53 20.13 16.99 24.49 16.99C28.84 16.99 32.38 20.53 32.38 24.89C32.38 29.24 28.84 32.78 24.49 32.78C20.13 32.78 16.59 29.24 16.59 24.89ZM25.25 37.87L25.25 34.03C27.21 33.88 29 33.09 30.41 31.89L33.12 34.61C31.01 36.49 28.27 37.69 25.25 37.87ZM34.21 33.53L31.49 30.81C32.69 29.4 33.47 27.61 33.63 25.65L37.47 25.65C37.29 28.67 36.09 31.41 34.21 33.53ZM33.63 24.13C33.47 22.17 32.69 20.38 31.49 18.96L34.21 16.25C36.09 18.37 37.29 21.11 37.47 24.13L33.63 24.13Z" fill="#FFFFFF" fill-opacity="1.000000" fill-rule="nonzero"/>
	</g>
</svg>
