<svg width="659.511719" height="49.148682" viewBox="0 0 659.512 49.1487" fill="none" xmlns="http://www.w3.org/2000/svg" xmlns:xlink="http://www.w3.org/1999/xlink">
	<desc>
			Created with Pixso.
	</desc>
	<defs/>
	<g opacity="0.200000">
		<path id="Vector" d="M635.01 49.06C628.74 49.06 622.46 46.67 617.68 41.89C608.13 32.34 608.13 16.79 617.68 7.24C622.31 2.61 628.47 0.06 635.01 0.06C641.56 0.06 647.71 2.61 652.34 7.24C661.9 16.79 661.9 32.34 652.34 41.89C647.57 46.67 641.29 49.06 635.01 49.06ZM618.97 40.61C627.81 49.45 642.21 49.45 651.05 40.61C659.89 31.76 659.89 17.37 651.05 8.53C646.76 4.24 641.07 1.88 635.01 1.88C628.95 1.88 623.25 4.24 618.96 8.53C610.12 17.37 610.12 31.76 618.96 40.61L618.97 40.61Z" fill="#9DADF2" fill-opacity="1.000000" fill-rule="nonzero"/>
		<path id="Vector" d="M634.69 33.73C634.78 33.94 634.98 34.07 635.2 34.07C635.27 34.07 635.34 34.05 635.41 34.02C637.14 33.3 638.72 32.18 639.96 30.78C640.16 30.55 640.14 30.2 639.92 30C639.69 29.8 639.34 29.82 639.14 30.05C638 31.33 636.57 32.35 634.99 33.01C634.71 33.13 634.58 33.45 634.69 33.73L634.69 33.73Z" fill="#9DADF2" fill-opacity="1.000000" fill-rule="nonzero"/>
		<path id="Vector" d="M644.35 16.09L635.21 12.44C635.08 12.39 634.93 12.39 634.8 12.44L625.66 16.09C625.45 16.18 625.32 16.38 625.32 16.6L625.32 23.15C625.33 29.19 629.15 34.65 634.82 36.73C634.88 36.75 634.94 36.76 635.01 36.76C635.07 36.76 635.14 36.75 635.2 36.73C640.87 34.64 644.68 29.19 644.69 23.15L644.69 16.6C644.69 16.38 644.56 16.18 644.35 16.09ZM643.59 23.15C643.58 28.64 640.14 33.65 635.01 35.62C629.89 33.65 626.43 28.64 626.42 23.15L626.42 16.98L635.01 13.55L643.59 16.98L643.59 23.15Z" fill="#9DADF2" fill-opacity="1.000000" fill-rule="nonzero"/>
		<path id="Vector" d="M631.19 16.95C631.06 16.9 630.91 16.9 630.77 16.95L628.6 17.82C628.39 17.9 628.25 18.11 628.25 18.33L628.25 20.65C628.25 20.96 628.5 21.2 628.8 21.2C629.11 21.2 629.35 20.96 629.35 20.65L629.35 18.71L631.18 17.98C631.32 17.92 631.42 17.82 631.48 17.68C631.54 17.54 631.54 17.4 631.48 17.26C631.43 17.12 631.32 17.01 631.19 16.95L631.19 16.95Z" fill="#9DADF2" fill-opacity="1.000000" fill-rule="nonzero"/>
		<path id="Vector" d="M648.93 10.65C645.21 6.93 640.27 4.89 635.01 4.89C629.75 4.89 624.82 6.94 621.09 10.65C613.42 18.32 613.42 30.81 621.09 38.49C624.93 42.32 629.97 44.24 635.01 44.24C640.05 44.24 645.09 42.32 648.93 38.49C656.6 30.81 656.6 18.33 648.93 10.65ZM646.21 23.15C646.22 30.13 641.76 36.24 635.11 38.35C635.05 38.37 634.98 38.37 634.91 38.35C628.26 36.24 623.8 30.13 623.82 23.15L623.82 15.43C623.82 15.3 623.89 15.18 624.02 15.13L634.89 10.78C634.93 10.76 634.97 10.76 635.01 10.76C635.05 10.76 635.09 10.76 635.13 10.78L646.01 15.13C646.13 15.18 646.21 15.3 646.21 15.43L646.21 23.15L646.21 23.15Z" fill="#9DADF2" fill-opacity="1.000000" fill-rule="nonzero"/>
		<path id="Vector" d="M572.44 49.05C558.93 49.05 547.94 38.06 547.94 24.56C547.94 11.06 558.93 0.07 572.44 0.07C585.94 0.07 596.93 11.06 596.93 24.56C596.93 38.06 585.94 49.05 572.44 49.05ZM572.44 1.7C559.83 1.7 549.58 11.95 549.58 24.56C549.58 37.17 559.83 47.42 572.44 47.42C585.04 47.42 595.3 37.17 595.3 24.56C595.3 11.95 585.04 1.7 572.44 1.7Z" fill="#7DDACF" fill-opacity="1.000000" fill-rule="nonzero"/>
		<path id="Vector" d="M580.84 14.67L588.42 7.08L589.91 8.58L582.33 16.16L580.84 14.67Z" fill="#7DDACF" fill-opacity="1.000000" fill-rule="evenodd"/>
		<path id="Vector" d="M554.74 40.77L562.32 33.18L563.81 34.68L556.23 42.26L554.74 40.77Z" fill="#7DDACF" fill-opacity="1.000000" fill-rule="evenodd"/>
		<path id="Vector" d="M581.06 34.68L582.55 33.19L590.13 40.77L588.64 42.26L581.06 34.68Z" fill="#7DDACF" fill-opacity="1.000000" fill-rule="evenodd"/>
		<path id="Vector" d="M554.73 8.35L556.23 6.86L563.8 14.44L562.31 15.93L554.73 8.35Z" fill="#7DDACF" fill-opacity="1.000000" fill-rule="evenodd"/>
		<path id="Vector" d="M578.41 25.22C578.9 24.72 578.9 23.93 578.41 23.44L577.36 22.39C576.87 21.9 576.07 21.9 575.58 22.39L575.01 22.96L574.36 22.31C573.87 21.81 573.07 21.81 572.58 22.31L572.01 22.88L571.36 22.22C570.87 21.73 570.07 21.73 569.58 22.22L566.11 25.69C566.08 25.72 566.08 25.76 566.11 25.79C566.57 26.25 567.33 26.25 567.79 25.79L570.03 23.55C570.27 23.31 570.67 23.31 570.91 23.55L571.07 23.72C571.1 23.75 571.1 23.79 571.07 23.82L569.2 25.69C569.18 25.72 569.18 25.76 569.2 25.79C569.67 26.25 570.42 26.25 570.89 25.79L573.04 23.64C573.28 23.4 573.67 23.4 573.91 23.64L574.08 23.81C574.1 23.83 574.1 23.88 574.08 23.91L572.28 25.71C572.25 25.73 572.25 25.77 572.28 25.81C572.74 26.27 573.5 26.27 573.96 25.81L576.04 23.73C576.28 23.49 576.67 23.49 576.91 23.73L577.27 24.09C577.4 24.23 577.4 24.46 577.27 24.6L577.21 24.65C577.07 24.79 576.84 24.79 576.7 24.65L576.24 24.19C576.22 24.17 576.18 24.17 576.15 24.19L575.35 24.99C575.33 25.01 575.33 25.05 575.35 25.08L576.07 25.8C576.56 26.29 577.36 26.29 577.85 25.8L578.41 25.23L578.41 25.22Z" fill="#7DDACF" fill-opacity="1.000000" fill-rule="nonzero"/>
		<path id="Vector" d="M572.44 5.78C562.06 5.78 553.66 14.19 553.66 24.56C553.66 34.93 562.06 43.34 572.44 43.34C582.81 43.34 591.21 34.93 591.21 24.56C591.21 14.19 582.81 5.78 572.44 5.78ZM573.2 11.58C576.22 11.75 578.96 12.96 581.07 14.84L578.36 17.55C576.95 16.35 575.16 15.58 573.2 15.41L573.2 11.58ZM571.67 11.58L571.67 15.41C569.71 15.57 567.93 16.35 566.51 17.55L563.8 14.84C565.92 12.96 568.66 11.75 571.67 11.58ZM562.72 15.92L565.43 18.63C564.24 20.05 563.46 21.83 563.29 23.79L559.46 23.79C559.64 20.78 560.84 18.04 562.72 15.92ZM559.46 25.32L563.29 25.32C563.45 27.28 564.24 29.07 565.43 30.48L562.72 33.19C560.84 31.07 559.64 28.34 559.46 25.32ZM571.67 37.54C568.66 37.36 565.92 36.16 563.8 34.27L566.51 31.56C567.93 32.76 569.71 33.54 571.67 33.7L571.67 37.54ZM564.54 24.55C564.54 20.2 568.08 16.66 572.44 16.66C576.79 16.66 580.33 20.2 580.33 24.55C580.33 28.91 576.79 32.45 572.44 32.45C568.08 32.45 564.54 28.91 564.54 24.55ZM573.2 37.54L573.2 33.7C575.16 33.54 576.95 32.76 578.36 31.56L581.07 34.27C578.96 36.16 576.22 37.36 573.2 37.54ZM582.15 33.19L579.44 30.48C580.64 29.07 581.42 27.28 581.58 25.32L585.42 25.32C585.24 28.34 584.04 31.07 582.15 33.19ZM581.58 23.79C581.42 21.83 580.64 20.05 579.44 18.63L582.15 15.92C584.04 18.04 585.24 20.78 585.42 23.79L581.58 23.79Z" fill="#7DDACF" fill-opacity="1.000000" fill-rule="nonzero"/>
		<path id="Vector" d="M511.41 48.98C497.9 48.98 486.92 37.99 486.92 24.49C486.92 10.99 497.91 0 511.41 0C524.91 0 535.9 10.99 535.9 24.49C535.9 37.99 524.91 48.98 511.41 48.98ZM511.41 1.63C498.8 1.63 488.55 11.88 488.55 24.49C488.55 37.09 498.8 47.35 511.41 47.35C524.01 47.35 534.27 37.09 534.27 24.49C534.27 11.88 524.01 1.63 511.41 1.63Z" fill="#9DADF2" fill-opacity="1.000000" fill-rule="nonzero"/>
		<path id="Vector" d="M519.35 9.19C519.23 9.19 519.1 9.17 518.99 9.11C516.62 7.94 514.07 7.34 511.41 7.34C508.75 7.34 506.2 7.94 503.82 9.11C503.51 9.27 503.13 9.2 502.89 8.96L498.68 4.75C498.5 4.57 498.42 4.32 498.45 4.07C498.48 3.82 498.62 3.6 498.84 3.47C502.63 1.19 506.98 0 511.41 0C515.85 0 520.2 1.2 523.99 3.47C524.2 3.6 524.35 3.82 524.38 4.07C524.41 4.32 524.32 4.57 524.15 4.75L519.94 8.96C519.78 9.11 519.57 9.19 519.36 9.19L519.35 9.19ZM511.41 5.71C514.12 5.71 516.73 6.28 519.18 7.39L522.23 4.35C518.91 2.56 515.19 1.63 511.41 1.63C507.62 1.63 503.9 2.56 500.59 4.35L503.63 7.39C506.08 6.28 508.7 5.71 511.41 5.71Z" fill="#9DADF2" fill-opacity="1.000000" fill-rule="nonzero"/>
		<path id="Vector" d="M511.41 48.98C506.97 48.98 502.62 47.77 498.83 45.5C498.62 45.37 498.47 45.15 498.44 44.9C498.41 44.65 498.5 44.4 498.67 44.22L502.88 40.01C503.13 39.77 503.51 39.71 503.82 39.86C506.19 41.03 508.74 41.63 511.4 41.63C514.06 41.63 516.61 41.03 518.99 39.86C519.3 39.71 519.67 39.77 519.92 40.01L524.13 44.22C524.31 44.4 524.39 44.65 524.36 44.9C524.33 45.15 524.19 45.37 523.97 45.5C520.18 47.78 515.83 48.98 511.4 48.98L511.41 48.98ZM500.59 44.62C503.9 46.41 507.62 47.35 511.41 47.35C515.19 47.35 518.91 46.41 522.23 44.62L519.18 41.58C516.73 42.69 514.12 43.26 511.41 43.26C508.7 43.26 506.08 42.69 503.63 41.58L500.59 44.62Z" fill="#9DADF2" fill-opacity="1.000000" fill-rule="nonzero"/>
		<path id="Vector" d="M531.72 37.46C531.51 37.46 531.3 37.37 531.15 37.22L526.94 33.01C526.69 32.76 526.63 32.38 526.78 32.08C527.96 29.7 528.56 27.15 528.56 24.49C528.56 21.83 527.96 19.28 526.78 16.91C526.63 16.59 526.69 16.21 526.94 15.97L531.15 11.76C531.33 11.58 531.58 11.5 531.83 11.53C532.08 11.56 532.3 11.71 532.43 11.92C534.7 15.71 535.9 20.06 535.9 24.5C535.9 28.93 534.7 33.28 532.43 37.07C532.3 37.29 532.08 37.43 531.83 37.46C531.79 37.46 531.76 37.46 531.72 37.46L531.72 37.46ZM528.5 32.26L531.54 35.31C533.33 31.99 534.27 28.27 534.27 24.49C534.27 20.7 533.33 16.98 531.54 13.67L528.5 16.71C529.62 19.16 530.18 21.77 530.18 24.49C530.18 27.2 529.62 29.81 528.5 32.26Z" fill="#9DADF2" fill-opacity="1.000000" fill-rule="nonzero"/>
		<path id="Vector" d="M491.09 37.46C491.05 37.46 491.02 37.46 490.99 37.45C490.74 37.42 490.52 37.28 490.39 37.06C488.11 33.27 486.92 28.92 486.92 24.49C486.92 20.05 488.11 15.7 490.39 11.91C490.52 11.7 490.74 11.55 490.99 11.52C491.24 11.49 491.49 11.58 491.67 11.75L495.88 15.96C496.13 16.21 496.19 16.59 496.03 16.9C494.86 19.27 494.26 21.82 494.26 24.48C494.26 27.14 494.86 29.69 496.03 32.06C496.19 32.38 496.13 32.76 495.88 33L491.67 37.21C491.52 37.36 491.31 37.45 491.09 37.45L491.09 37.46ZM491.27 13.67C489.48 16.98 488.55 20.7 488.55 24.49C488.55 28.27 489.48 31.99 491.27 35.31L494.31 32.26C493.2 29.81 492.63 27.2 492.63 24.49C492.63 21.77 493.2 19.16 494.31 16.71L491.27 13.67Z" fill="#9DADF2" fill-opacity="1.000000" fill-rule="nonzero"/>
		<path id="Vector" d="M511.41 5.71C501.05 5.71 492.63 14.13 492.63 24.49C492.63 34.84 501.05 43.27 511.41 43.27C521.76 43.27 530.19 34.84 530.19 24.49C530.19 14.13 521.76 5.71 511.41 5.71ZM521.97 18.32C522.86 19.84 523.4 21.5 523.58 23.27C523.59 23.34 523.55 23.41 523.49 23.44C522.15 24.26 520.95 25.27 519.91 26.45C519.86 26.51 519.78 26.53 519.71 26.5L517.4 25.75C517.33 25.73 517.28 25.67 517.27 25.6C517.01 23.68 516.41 21.84 515.5 20.13C515.47 20.07 515.47 20 515.51 19.94L516.95 17.97C516.98 17.92 517.04 17.89 517.1 17.89C517.11 17.89 517.12 17.89 517.14 17.89C518.67 18.23 520.25 18.34 521.81 18.21C521.88 18.21 521.95 18.24 521.99 18.31L521.97 18.32ZM516.01 25.92C516.01 25.97 516 26.02 515.96 26.06C514.75 27.46 513.19 28.59 511.48 29.31C511.43 29.33 511.39 29.33 511.34 29.31C509.63 28.59 508.07 27.46 506.85 26.06C506.82 26.02 506.81 25.97 506.81 25.92C507.05 24.06 507.63 22.28 508.53 20.63C508.56 20.59 508.6 20.56 508.65 20.54C509.55 20.35 510.48 20.26 511.41 20.26C512.34 20.26 513.27 20.35 514.17 20.54C514.23 20.56 514.27 20.59 514.29 20.63C515.19 22.28 515.77 24.06 516.01 25.92L516.01 25.92ZM515.73 13.15C515.73 13.15 515.79 13.1 515.85 13.1C515.87 13.1 515.9 13.1 515.92 13.12C517.82 13.87 519.51 15.1 520.83 16.68C520.89 16.76 520.87 16.84 520.85 16.87C520.84 16.9 520.8 16.98 520.69 16.98C519.52 16.99 518.36 16.86 517.23 16.59C517.18 16.58 517.14 16.55 517.12 16.51C516.52 15.52 516.03 14.45 515.68 13.34C515.65 13.24 515.71 13.17 515.73 13.15L515.73 13.15ZM508.81 12.53C510.51 12.17 512.31 12.17 514.01 12.53C514.08 12.55 514.13 12.6 514.15 12.67C514.51 14.2 515.11 15.66 515.9 17.01C515.94 17.07 515.93 17.15 515.89 17.21L514.47 19.18C514.43 19.23 514.35 19.26 514.29 19.25C512.4 18.87 510.41 18.87 508.53 19.25C508.46 19.26 508.39 19.23 508.35 19.18L506.93 17.21C506.88 17.15 506.88 17.07 506.91 17.01C507.71 15.66 508.3 14.2 508.67 12.67C508.68 12.6 508.74 12.55 508.81 12.53ZM501.99 16.68C503.31 15.1 505 13.86 506.89 13.12C506.92 13.1 506.95 13.1 506.97 13.1C507.03 13.1 507.07 13.14 507.09 13.15C507.12 13.18 507.17 13.24 507.14 13.34C506.79 14.45 506.31 15.52 505.71 16.51C505.68 16.55 505.64 16.58 505.59 16.59C504.47 16.86 503.3 16.99 502.14 16.98C502.03 16.98 501.98 16.9 501.97 16.87C501.96 16.84 501.93 16.76 502 16.68L501.99 16.68ZM500.84 18.32C500.87 18.26 500.94 18.22 501 18.22C501 18.22 501.01 18.22 501.02 18.22C502.59 18.35 504.16 18.24 505.69 17.9C505.76 17.88 505.83 17.91 505.88 17.97L507.31 19.95C507.35 20 507.36 20.08 507.33 20.14C506.41 21.85 505.81 23.68 505.55 25.6C505.54 25.67 505.5 25.73 505.43 25.75L503.11 26.51C503.04 26.53 502.96 26.51 502.92 26.46C501.88 25.28 500.67 24.27 499.33 23.45C499.27 23.41 499.24 23.34 499.24 23.27C499.42 21.51 499.96 19.84 500.85 18.32L500.84 18.32ZM501.4 30.99C501.37 31.09 501.29 31.11 501.25 31.12C501.21 31.12 501.13 31.12 501.08 31.04C499.98 29.31 499.33 27.32 499.2 25.27C499.2 25.16 499.26 25.11 499.3 25.1C499.33 25.08 499.41 25.05 499.49 25.11C500.44 25.78 501.31 26.57 502.06 27.45C502.09 27.49 502.11 27.54 502.1 27.59C502.01 28.75 501.78 29.89 501.4 31L501.4 30.99ZM506.49 35.69C504.88 34.99 503.47 33.95 502.28 32.63C502.24 32.57 502.22 32.5 502.25 32.43C502.85 30.98 503.23 29.46 503.38 27.89C503.39 27.82 503.44 27.76 503.5 27.74L505.8 26.99C505.8 26.99 505.83 26.98 505.86 26.98C505.91 26.98 505.95 27 505.99 27.04C507.28 28.48 508.89 29.66 510.65 30.43C510.72 30.46 510.76 30.53 510.76 30.6L510.76 33.01C510.76 33.08 510.72 33.15 510.65 33.18C509.21 33.8 507.87 34.64 506.67 35.66C506.62 35.71 506.54 35.72 506.48 35.69L506.49 35.69ZM514.58 36.2C514.58 36.24 514.55 36.32 514.45 36.35C512.46 36.85 510.36 36.85 508.38 36.35C508.28 36.32 508.25 36.24 508.24 36.2C508.24 36.17 508.23 36.08 508.31 36.02C509.25 35.32 510.27 34.74 511.34 34.29C511.39 34.27 511.44 34.27 511.48 34.29C512.55 34.74 513.57 35.32 514.51 36.02C514.6 36.08 514.59 36.17 514.59 36.2L514.58 36.2ZM520.54 32.63C519.36 33.96 517.95 34.99 516.34 35.69C516.27 35.72 516.2 35.71 516.15 35.67C514.95 34.64 513.62 33.8 512.17 33.18C512.11 33.15 512.07 33.09 512.07 33.02L512.07 30.6C512.07 30.53 512.11 30.46 512.17 30.44C513.94 29.66 515.55 28.49 516.83 27.05C516.87 27.01 516.92 26.99 516.97 26.99C516.99 26.99 517 26.99 517.03 27L519.32 27.74C519.39 27.76 519.44 27.83 519.44 27.9C519.59 29.46 519.97 30.98 520.58 32.44C520.6 32.5 520.59 32.58 520.54 32.63L520.54 32.63ZM521.75 31.04C521.69 31.13 521.6 31.13 521.57 31.12C521.54 31.12 521.46 31.1 521.42 31C521.05 29.89 520.81 28.75 520.71 27.59C520.71 27.54 520.72 27.49 520.76 27.45C521.51 26.57 522.38 25.79 523.33 25.11C523.36 25.08 523.4 25.07 523.43 25.07C523.47 25.07 523.5 25.09 523.52 25.1C523.55 25.11 523.63 25.16 523.62 25.27C523.49 27.32 522.84 29.31 521.74 31.04L521.75 31.04Z" fill="#9DADF2" fill-opacity="1.000000" fill-rule="nonzero"/>
		<path id="Vector" d="M450.94 0.15C464.45 0.15 475.44 11.14 475.44 24.65C475.44 38.15 464.45 49.14 450.94 49.14C437.44 49.14 426.45 38.15 426.45 24.65C426.45 11.14 437.44 0.15 450.94 0.15ZM450.94 47.38C463.48 47.38 473.68 37.18 473.68 24.65C473.68 12.11 463.48 1.92 450.94 1.92C438.41 1.92 428.21 12.11 428.21 24.65C428.21 37.18 438.41 47.38 450.94 47.38Z" fill="#478BF9" fill-opacity="1.000000" fill-rule="nonzero"/>
		<path id="Vector" d="M391.07 0.15C391.55 0.15 391.95 0.55 391.95 1.03C391.95 1.51 391.55 1.91 391.07 1.91C378.53 1.91 368.33 12.11 368.33 24.64C368.33 37.17 378.53 47.37 391.07 47.37C391.55 47.37 391.95 47.77 391.95 48.25C391.95 48.74 391.55 49.13 391.07 49.13C377.56 49.13 366.57 38.14 366.57 24.64C366.57 11.13 377.56 0.14 391.07 0.14L391.07 0.15Z" fill="#478BF9" fill-opacity="1.000000" fill-rule="nonzero"/>
		<path id="Vector" d="M446.23 20.32C446.23 21.22 446.84 22 447.72 22.21L449.38 22.63L449.38 18.35L448.2 18.35C447.12 18.35 446.24 19.23 446.24 20.32L446.23 20.32Z" fill="#478BF9" fill-opacity="1.000000" fill-rule="nonzero"/>
		<path id="Vector" d="M452.52 30.93L453.7 30.93C454.78 30.93 455.66 30.05 455.66 28.97C455.66 28.07 455.05 27.29 454.17 27.07L452.51 26.65L452.51 30.93L452.52 30.93Z" fill="#478BF9" fill-opacity="1.000000" fill-rule="nonzero"/>
		<path id="Vector" d="M450.95 4.71C439.96 4.71 431.01 13.65 431.01 24.65C431.01 35.64 439.95 44.58 450.95 44.58C461.94 44.58 470.89 35.64 470.89 24.65C470.89 13.65 461.94 4.71 450.95 4.71ZM458.81 21.5L455.67 21.5L455.67 19.92C455.67 19.06 454.96 18.35 454.09 18.35L452.52 18.35L452.52 23.41L454.94 24.02C457.22 24.59 458.81 26.62 458.81 28.97C458.81 31.78 456.52 34.07 453.7 34.07L452.52 34.07L452.52 38.06L449.37 38.06L449.37 34.07L447.8 34.07C445.2 34.07 443.08 31.96 443.08 29.36L443.08 27.78L446.23 27.78L446.23 29.36C446.23 30.22 446.93 30.93 447.8 30.93L449.37 30.93L449.37 25.87L446.95 25.26C444.68 24.69 443.09 22.66 443.09 20.31C443.09 17.5 445.38 15.21 448.19 15.21L449.37 15.21L449.37 11.22L452.52 11.22L452.52 15.21L454.09 15.21C456.7 15.21 458.81 17.32 458.81 19.92L458.81 21.5Z" fill="#478BF9" fill-opacity="1.000000" fill-rule="nonzero"/>
		<path id="Vector" d="" fill="#478BF9" fill-opacity="1.000000" fill-rule="nonzero"/>
		<path id="Vector" d="M390.69 0.12L449.81 0.12C450.3 0.12 450.69 0.52 450.69 1C450.69 1.48 450.29 1.88 449.81 1.88L390.69 1.88C390.2 1.88 389.81 1.48 389.81 1C389.81 0.52 390.21 0.12 390.69 0.12Z" fill="#478BF9" fill-opacity="1.000000" fill-rule="nonzero"/>
		<path id="Vector" d="" fill="#478BF9" fill-opacity="1.000000" fill-rule="nonzero"/>
		<path id="Vector" d="M390.56 47.35L449.68 47.35C450.17 47.35 450.56 47.74 450.56 48.23C450.56 48.71 450.16 49.11 449.68 49.11L390.56 49.11C390.07 49.11 389.68 48.71 389.68 48.23C389.68 47.74 390.08 47.35 390.56 47.35Z" fill="#478BF9" fill-opacity="1.000000" fill-rule="nonzero"/>
		<path id="Vector" d="M326.95 49.06C320.67 49.06 314.4 46.67 309.62 41.89C300.07 32.34 300.07 16.79 309.62 7.24C314.25 2.61 320.4 0.06 326.95 0.06C333.49 0.06 339.65 2.61 344.28 7.24C353.83 16.79 353.83 32.34 344.28 41.89C339.5 46.67 333.23 49.06 326.95 49.06ZM310.91 40.61C319.75 49.45 334.14 49.45 342.99 40.61C351.83 31.76 351.83 17.37 342.99 8.53C338.7 4.24 333 1.88 326.94 1.88C320.88 1.88 315.19 4.24 310.9 8.53C302.06 17.37 302.06 31.76 310.9 40.61L310.91 40.61Z" fill="#9DADF2" fill-opacity="1.000000" fill-rule="nonzero"/>
		<path id="Vector" d="M326.62 33.73C326.71 33.94 326.92 34.07 327.13 34.07C327.21 34.07 327.28 34.05 327.35 34.02C329.08 33.3 330.65 32.18 331.9 30.78C332.1 30.55 332.08 30.2 331.85 30C331.63 29.8 331.28 29.82 331.07 30.05C329.94 31.33 328.5 32.35 326.92 33.01C326.64 33.13 326.51 33.45 326.63 33.73L326.62 33.73Z" fill="#9DADF2" fill-opacity="1.000000" fill-rule="nonzero"/>
		<path id="Vector" d="M336.29 16.09L327.15 12.44C327.01 12.39 326.87 12.39 326.74 12.44L317.6 16.09C317.39 16.18 317.25 16.38 317.25 16.6L317.25 23.15C317.26 29.19 321.08 34.65 326.75 36.73C326.81 36.75 326.88 36.76 326.94 36.76C327.01 36.76 327.07 36.75 327.13 36.73C332.8 34.64 336.62 29.19 336.63 23.15L336.63 16.6C336.63 16.38 336.5 16.18 336.29 16.09ZM335.53 23.15C335.52 28.64 332.07 33.65 326.95 35.62C321.82 33.65 318.37 28.64 318.36 23.15L318.36 16.98L326.95 13.55L335.53 16.98L335.53 23.15Z" fill="#9DADF2" fill-opacity="1.000000" fill-rule="nonzero"/>
		<path id="Vector" d="M323.13 16.95C323 16.9 322.85 16.9 322.71 16.95L320.53 17.82C320.32 17.91 320.19 18.11 320.19 18.33L320.19 20.65C320.19 20.96 320.43 21.2 320.74 21.2C321.04 21.2 321.29 20.96 321.29 20.65L321.29 18.71L323.11 17.98C323.25 17.92 323.36 17.82 323.42 17.68C323.47 17.54 323.47 17.4 323.42 17.26C323.36 17.12 323.26 17.02 323.13 16.95L323.13 16.95Z" fill="#9DADF2" fill-opacity="1.000000" fill-rule="nonzero"/>
		<path id="Vector" d="M340.87 10.65C337.15 6.93 332.21 4.89 326.95 4.89C321.69 4.89 316.75 6.94 313.03 10.65C305.36 18.32 305.36 30.81 313.03 38.49C316.87 42.32 321.91 44.24 326.95 44.24C331.99 44.24 337.03 42.32 340.87 38.49C348.54 30.81 348.54 18.33 340.87 10.65ZM338.14 23.15C338.16 30.13 333.7 36.24 327.05 38.35C326.98 38.37 326.92 38.37 326.85 38.35C320.2 36.24 315.74 30.13 315.75 23.15L315.75 15.43C315.75 15.3 315.83 15.18 315.95 15.13L326.83 10.78C326.87 10.76 326.91 10.76 326.95 10.76C326.99 10.76 327.03 10.76 327.07 10.78L337.94 15.13C338.07 15.18 338.14 15.3 338.14 15.43L338.14 23.15L338.14 23.15Z" fill="#9DADF2" fill-opacity="1.000000" fill-rule="nonzero"/>
		<path id="Vector" d="M264.37 49.05C250.87 49.05 239.88 38.06 239.88 24.56C239.88 11.06 250.87 0.07 264.37 0.07C277.87 0.07 288.86 11.06 288.86 24.56C288.86 38.06 277.87 49.05 264.37 49.05ZM264.37 1.7C251.77 1.7 241.51 11.95 241.51 24.56C241.51 37.17 251.77 47.42 264.37 47.42C276.98 47.42 287.23 37.17 287.23 24.56C287.23 11.95 276.98 1.7 264.37 1.7Z" fill="#7DDACF" fill-opacity="1.000000" fill-rule="nonzero"/>
		<path id="Vector" d="M272.77 14.67L280.35 7.08L281.84 8.58L274.26 16.16L272.77 14.67Z" fill="#7DDACF" fill-opacity="1.000000" fill-rule="evenodd"/>
		<path id="Vector" d="M246.67 40.77L254.25 33.18L255.74 34.68L248.16 42.26L246.67 40.77Z" fill="#7DDACF" fill-opacity="1.000000" fill-rule="evenodd"/>
		<path id="Vector" d="M272.99 34.68L274.49 33.19L282.07 40.77L280.57 42.26L272.99 34.68Z" fill="#7DDACF" fill-opacity="1.000000" fill-rule="evenodd"/>
		<path id="Vector" d="M246.67 8.35L248.16 6.86L255.74 14.44L254.25 15.93L246.67 8.35Z" fill="#7DDACF" fill-opacity="1.000000" fill-rule="evenodd"/>
		<path id="Vector" d="M270.34 25.22C270.84 24.72 270.84 23.93 270.34 23.44L269.29 22.39C268.8 21.9 268 21.9 267.51 22.39L266.95 22.96L266.29 22.31C265.8 21.81 265 21.81 264.51 22.31L263.95 22.88L263.29 22.22C262.8 21.73 262 21.73 261.51 22.22L258.04 25.69C258.02 25.72 258.02 25.76 258.04 25.79C258.51 26.25 259.26 26.25 259.73 25.79L261.97 23.55C262.21 23.31 262.6 23.31 262.84 23.55L263.01 23.72C263.04 23.75 263.04 23.79 263.01 23.82L261.14 25.69C261.11 25.72 261.11 25.76 261.14 25.79C261.6 26.25 262.36 26.25 262.83 25.79L264.97 23.64C265.21 23.4 265.6 23.4 265.85 23.64L266.01 23.81C266.04 23.83 266.04 23.88 266.01 23.91L264.21 25.71C264.19 25.73 264.19 25.77 264.21 25.81C264.67 26.27 265.43 26.27 265.9 25.81L267.97 23.73C268.21 23.49 268.6 23.49 268.85 23.73L269.2 24.09C269.34 24.23 269.34 24.46 269.2 24.6L269.15 24.65C269.01 24.79 268.78 24.79 268.64 24.65L268.18 24.19C268.15 24.17 268.11 24.17 268.08 24.19L267.29 24.99C267.26 25.01 267.26 25.05 267.29 25.08L268 25.8C268.5 26.29 269.29 26.29 269.78 25.8L270.35 25.23L270.34 25.22Z" fill="#7DDACF" fill-opacity="1.000000" fill-rule="nonzero"/>
		<path id="Vector" d="M264.37 5.78C254 5.78 245.59 14.19 245.59 24.56C245.59 34.93 254 43.34 264.37 43.34C274.74 43.34 283.15 34.93 283.15 24.56C283.15 14.19 274.74 5.78 264.37 5.78ZM265.14 11.58C268.15 11.75 270.89 12.96 273.01 14.84L270.3 17.55C268.88 16.35 267.1 15.58 265.14 15.41L265.14 11.58ZM263.61 11.58L263.61 15.41C261.65 15.57 259.86 16.35 258.45 17.55L255.74 14.84C257.86 12.96 260.6 11.75 263.61 11.58ZM254.66 15.92L257.37 18.63C256.17 20.05 255.39 21.83 255.23 23.79L251.4 23.79C251.57 20.78 252.77 18.04 254.66 15.92ZM251.4 25.32L255.23 25.32C255.39 27.28 256.17 29.07 257.37 30.48L254.66 33.19C252.77 31.07 251.57 28.34 251.4 25.32ZM263.61 37.54C260.6 37.36 257.86 36.16 255.74 34.27L258.45 31.56C259.86 32.76 261.65 33.54 263.61 33.7L263.61 37.54ZM256.48 24.55C256.48 20.2 260.01 16.66 264.37 16.66C268.73 16.66 272.26 20.2 272.26 24.55C272.26 28.91 268.73 32.45 264.37 32.45C260.01 32.45 256.48 28.91 256.48 24.55ZM265.14 37.54L265.14 33.7C267.1 33.54 268.88 32.76 270.3 31.56L273.01 34.27C270.89 36.16 268.15 37.36 265.14 37.54ZM274.09 33.19L271.38 30.48C272.58 29.07 273.35 27.28 273.52 25.32L277.35 25.32C277.18 28.34 275.97 31.07 274.09 33.19ZM273.52 23.79C273.36 21.83 272.58 20.05 271.38 18.63L274.09 15.92C275.97 18.04 277.18 20.78 277.35 23.79L273.52 23.79Z" fill="#7DDACF" fill-opacity="1.000000" fill-rule="nonzero"/>
		<path id="Vector" d="M203.34 48.98C189.84 48.98 178.85 37.99 178.85 24.49C178.85 10.99 189.84 0 203.34 0C216.84 0 227.83 10.99 227.83 24.49C227.83 37.99 216.84 48.98 203.34 48.98ZM203.34 1.63C190.74 1.63 180.48 11.88 180.48 24.49C180.48 37.09 190.74 47.35 203.34 47.35C215.95 47.35 226.2 37.09 226.2 24.49C226.2 11.88 215.95 1.63 203.34 1.63Z" fill="#9DADF2" fill-opacity="1.000000" fill-rule="nonzero"/>
		<path id="Vector" d="M211.29 9.19C211.16 9.19 211.04 9.17 210.93 9.11C208.56 7.94 206 7.34 203.34 7.34C200.68 7.34 198.13 7.94 195.76 9.11C195.45 9.27 195.07 9.2 194.82 8.96L190.61 4.75C190.43 4.57 190.35 4.32 190.38 4.07C190.41 3.82 190.56 3.6 190.77 3.47C194.57 1.19 198.91 0 203.35 0C207.78 0 212.13 1.2 215.92 3.47C216.14 3.6 216.28 3.82 216.31 4.07C216.35 4.32 216.26 4.57 216.08 4.75L211.87 8.96C211.71 9.11 211.51 9.19 211.29 9.19L211.29 9.19ZM203.34 5.71C206.05 5.71 208.67 6.28 211.12 7.39L214.16 4.35C210.85 2.56 207.13 1.63 203.34 1.63C199.56 1.63 195.84 2.56 192.52 4.35L195.57 7.39C198.02 6.28 200.63 5.71 203.34 5.71Z" fill="#9DADF2" fill-opacity="1.000000" fill-rule="nonzero"/>
		<path id="Vector" d="M203.34 48.98C198.91 48.98 194.56 47.77 190.77 45.5C190.55 45.37 190.41 45.15 190.38 44.9C190.35 44.65 190.43 44.4 190.61 44.22L194.82 40.01C195.06 39.77 195.44 39.71 195.75 39.86C198.13 41.03 200.68 41.63 203.34 41.63C206 41.63 208.55 41.03 210.92 39.86C211.24 39.71 211.61 39.77 211.86 40.01L216.07 44.22C216.25 44.4 216.33 44.65 216.3 44.9C216.27 45.15 216.12 45.37 215.91 45.5C212.11 47.78 207.77 48.98 203.33 48.98L203.34 48.98ZM192.52 44.62C195.84 46.41 199.56 47.35 203.34 47.35C207.13 47.35 210.85 46.41 214.16 44.62L211.12 41.58C208.67 42.69 206.05 43.26 203.34 43.26C200.63 43.26 198.02 42.69 195.57 41.58L192.52 44.62Z" fill="#9DADF2" fill-opacity="1.000000" fill-rule="nonzero"/>
		<path id="Vector" d="M223.66 37.46C223.44 37.46 223.24 37.37 223.08 37.22L218.88 33.01C218.63 32.76 218.57 32.38 218.72 32.08C219.89 29.7 220.49 27.15 220.49 24.49C220.49 21.83 219.89 19.28 218.72 16.91C218.57 16.59 218.63 16.21 218.88 15.97L223.08 11.76C223.26 11.58 223.51 11.5 223.76 11.53C224.02 11.56 224.24 11.71 224.37 11.92C226.64 15.71 227.84 20.06 227.84 24.5C227.84 28.93 226.64 33.28 224.37 37.07C224.24 37.29 224.02 37.43 223.76 37.46C223.73 37.46 223.7 37.46 223.66 37.46L223.66 37.46ZM220.43 32.26L223.48 35.31C225.27 31.99 226.2 28.27 226.2 24.49C226.2 20.7 225.27 16.98 223.48 13.67L220.43 16.71C221.55 19.16 222.12 21.77 222.12 24.49C222.12 27.2 221.55 29.81 220.43 32.26Z" fill="#9DADF2" fill-opacity="1.000000" fill-rule="nonzero"/>
		<path id="Vector" d="M183.02 37.46C182.99 37.46 182.96 37.46 182.93 37.45C182.67 37.42 182.45 37.28 182.32 37.06C180.05 33.27 178.85 28.92 178.85 24.49C178.85 20.05 180.05 15.7 182.32 11.91C182.45 11.7 182.67 11.55 182.93 11.52C183.18 11.49 183.42 11.58 183.61 11.75L187.81 15.96C188.06 16.21 188.12 16.59 187.97 16.9C186.8 19.27 186.2 21.82 186.2 24.48C186.2 27.14 186.8 29.69 187.97 32.06C188.12 32.38 188.06 32.76 187.81 33L183.61 37.21C183.45 37.36 183.24 37.45 183.03 37.45L183.02 37.46ZM183.2 13.67C181.42 16.98 180.48 20.7 180.48 24.49C180.48 28.27 181.42 31.99 183.2 35.31L186.25 32.26C185.13 29.81 184.57 27.2 184.57 24.49C184.57 21.77 185.13 19.16 186.25 16.71L183.2 13.67Z" fill="#9DADF2" fill-opacity="1.000000" fill-rule="nonzero"/>
		<path id="Vector" d="M203.34 5.71C192.99 5.71 184.56 14.13 184.56 24.49C184.56 34.84 192.99 43.27 203.34 43.27C213.7 43.27 222.12 34.84 222.12 24.49C222.12 14.13 213.7 5.71 203.34 5.71ZM213.91 18.32C214.8 19.84 215.34 21.5 215.52 23.27C215.52 23.34 215.49 23.41 215.43 23.44C214.09 24.26 212.88 25.27 211.84 26.45C211.8 26.51 211.72 26.53 211.65 26.5L209.33 25.75C209.26 25.73 209.22 25.67 209.21 25.6C208.95 23.68 208.35 21.84 207.43 20.13C207.4 20.07 207.41 20 207.45 19.94L208.88 17.97C208.92 17.92 208.98 17.89 209.03 17.89C209.05 17.89 209.06 17.89 209.07 17.89C210.61 18.23 212.18 18.34 213.75 18.21C213.82 18.21 213.88 18.24 213.92 18.31L213.91 18.32ZM207.94 25.92C207.95 25.97 207.93 26.02 207.9 26.06C206.68 27.46 205.13 28.59 203.41 29.31C203.37 29.33 203.32 29.33 203.28 29.31C201.56 28.59 200.01 27.46 198.79 26.06C198.76 26.02 198.74 25.97 198.75 25.92C198.98 24.06 199.57 22.28 200.47 20.63C200.49 20.59 200.53 20.56 200.58 20.54C201.49 20.35 202.42 20.26 203.35 20.26C204.28 20.26 205.2 20.35 206.11 20.54C206.16 20.56 206.2 20.59 206.23 20.63C207.13 22.28 207.71 24.06 207.95 25.92L207.94 25.92ZM207.66 13.15C207.66 13.15 207.73 13.1 207.79 13.1C207.81 13.1 207.83 13.1 207.86 13.12C209.75 13.87 211.45 15.1 212.76 16.68C212.83 16.76 212.8 16.84 212.79 16.87C212.78 16.9 212.73 16.98 212.62 16.98C211.46 16.99 210.29 16.86 209.17 16.59C209.12 16.58 209.08 16.55 209.05 16.51C208.45 15.52 207.97 14.45 207.62 13.34C207.59 13.24 207.64 13.17 207.67 13.15L207.66 13.15ZM200.74 12.53C202.45 12.17 204.24 12.17 205.95 12.53C206.01 12.55 206.07 12.6 206.08 12.67C206.45 14.2 207.04 15.66 207.84 17.01C207.88 17.07 207.87 17.15 207.83 17.21L206.4 19.18C206.36 19.23 206.29 19.26 206.22 19.25C204.34 18.87 202.35 18.87 200.47 19.25C200.4 19.26 200.33 19.23 200.29 19.18L198.86 17.21C198.82 17.15 198.81 17.07 198.85 17.01C199.65 15.66 200.24 14.2 200.61 12.67C200.62 12.6 200.68 12.55 200.74 12.53ZM193.93 16.68C195.24 15.1 196.94 13.86 198.83 13.12C198.86 13.1 198.88 13.1 198.9 13.1C198.97 13.1 199.01 13.14 199.03 13.15C199.05 13.18 199.11 13.24 199.08 13.34C198.73 14.45 198.24 15.52 197.64 16.51C197.62 16.55 197.57 16.58 197.53 16.59C196.4 16.86 195.24 16.99 194.07 16.98C193.96 16.98 193.92 16.9 193.91 16.87C193.89 16.84 193.86 16.76 193.93 16.68L193.93 16.68ZM192.78 18.32C192.81 18.26 192.87 18.22 192.94 18.22C192.94 18.22 192.95 18.22 192.95 18.22C194.52 18.35 196.1 18.24 197.63 17.9C197.7 17.88 197.77 17.91 197.81 17.97L199.25 19.95C199.29 20 199.29 20.08 199.26 20.14C198.35 21.85 197.75 23.68 197.49 25.6C197.48 25.67 197.43 25.73 197.36 25.75L195.04 26.51C194.98 26.53 194.9 26.51 194.85 26.46C193.81 25.28 192.61 24.27 191.27 23.45C191.21 23.41 191.17 23.34 191.18 23.27C191.35 21.51 191.89 19.84 192.78 18.32L192.78 18.32ZM193.34 30.99C193.31 31.09 193.22 31.11 193.19 31.12C193.15 31.12 193.07 31.12 193.01 31.04C191.91 29.31 191.27 27.32 191.14 25.27C191.13 25.16 191.2 25.11 191.23 25.1C191.26 25.08 191.34 25.05 191.43 25.11C192.38 25.78 193.24 26.57 194 27.45C194.03 27.49 194.05 27.54 194.04 27.59C193.95 28.75 193.71 29.89 193.34 31L193.34 30.99ZM198.42 35.69C196.82 34.99 195.4 33.95 194.22 32.63C194.17 32.57 194.16 32.5 194.18 32.43C194.79 30.98 195.17 29.46 195.32 27.89C195.32 27.82 195.37 27.76 195.44 27.74L197.73 26.99C197.73 26.99 197.77 26.98 197.79 26.98C197.84 26.98 197.89 27 197.92 27.04C199.21 28.48 200.82 29.66 202.59 30.43C202.65 30.46 202.69 30.53 202.69 30.6L202.69 33.01C202.69 33.08 202.65 33.15 202.59 33.18C201.15 33.8 199.81 34.64 198.61 35.66C198.56 35.71 198.48 35.72 198.42 35.69L198.42 35.69ZM206.52 36.2C206.51 36.24 206.49 36.32 206.38 36.35C204.4 36.85 202.3 36.85 200.31 36.35C200.21 36.32 200.18 36.24 200.18 36.2C200.17 36.17 200.16 36.08 200.25 36.02C201.19 35.32 202.21 34.74 203.28 34.29C203.33 34.27 203.37 34.27 203.42 34.29C204.49 34.74 205.51 35.32 206.45 36.02C206.53 36.08 206.53 36.17 206.52 36.2L206.52 36.2ZM212.48 32.63C211.3 33.96 209.88 34.99 208.28 35.69C208.21 35.72 208.14 35.71 208.09 35.67C206.89 34.64 205.55 33.8 204.11 33.18C204.04 33.15 204 33.09 204 33.02L204 30.6C204 30.53 204.04 30.46 204.11 30.44C205.87 29.66 207.49 28.49 208.77 27.05C208.81 27.01 208.85 26.99 208.9 26.99C208.92 26.99 208.94 26.99 208.96 27L211.26 27.74C211.32 27.76 211.37 27.83 211.38 27.9C211.53 29.46 211.91 30.98 212.51 32.44C212.54 32.5 212.53 32.58 212.47 32.63L212.48 32.63ZM213.68 31.04C213.63 31.13 213.54 31.13 213.51 31.12C213.47 31.12 213.39 31.1 213.35 31C212.98 29.89 212.75 28.75 212.65 27.59C212.65 27.54 212.66 27.49 212.69 27.45C213.45 26.57 214.31 25.79 215.26 25.11C215.3 25.08 215.34 25.07 215.37 25.07C215.41 25.07 215.44 25.09 215.46 25.1C215.49 25.11 215.56 25.16 215.55 25.27C215.42 27.32 214.77 29.31 213.68 31.04L213.68 31.04Z" fill="#9DADF2" fill-opacity="1.000000" fill-rule="nonzero"/>
		<path id="Vector" d="M142.88 0.15C156.39 0.15 167.38 11.14 167.38 24.65C167.38 38.15 156.39 49.14 142.88 49.14C129.37 49.14 118.38 38.15 118.38 24.65C118.38 11.14 129.37 0.15 142.88 0.15ZM142.88 47.38C155.41 47.38 165.61 37.18 165.61 24.65C165.61 12.11 155.41 1.92 142.88 1.92C130.35 1.92 120.15 12.11 120.15 24.65C120.15 37.18 130.35 47.38 142.88 47.38Z" fill="#478BF9" fill-opacity="1.000000" fill-rule="nonzero"/>
		<path id="Vector" d="M83 0.15C83.49 0.15 83.88 0.55 83.88 1.03C83.88 1.51 83.48 1.91 83 1.91C70.47 1.91 60.27 12.11 60.27 24.64C60.27 37.17 70.47 47.37 83 47.37C83.49 47.37 83.88 47.77 83.88 48.25C83.88 48.74 83.48 49.13 83 49.13C69.49 49.13 58.5 38.14 58.5 24.64C58.5 11.13 69.49 0.14 83 0.14L83 0.15Z" fill="#478BF9" fill-opacity="1.000000" fill-rule="nonzero"/>
		<path id="Vector" d="M138.17 20.32C138.17 21.22 138.78 22 139.65 22.21L141.32 22.63L141.32 18.35L140.13 18.35C139.05 18.35 138.17 19.23 138.17 20.32L138.17 20.32Z" fill="#478BF9" fill-opacity="1.000000" fill-rule="nonzero"/>
		<path id="Vector" d="M144.45 30.93L145.64 30.93C146.72 30.93 147.6 30.05 147.6 28.97C147.6 28.07 146.98 27.29 146.11 27.07L144.45 26.65L144.45 30.93L144.45 30.93Z" fill="#478BF9" fill-opacity="1.000000" fill-rule="nonzero"/>
		<path id="Vector" d="M142.88 4.71C131.89 4.71 122.95 13.65 122.95 24.65C122.95 35.64 131.89 44.58 142.88 44.58C153.88 44.58 162.82 35.64 162.82 24.65C162.82 13.65 153.88 4.71 142.88 4.71ZM150.75 21.5L147.6 21.5L147.6 19.92C147.6 19.06 146.9 18.35 146.03 18.35L144.45 18.35L144.45 23.41L146.88 24.02C149.15 24.59 150.74 26.62 150.74 28.97C150.74 31.78 148.45 34.07 145.64 34.07L144.45 34.07L144.45 38.06L141.31 38.06L141.31 34.07L139.74 34.07C137.13 34.07 135.02 31.96 135.02 29.36L135.02 27.78L138.16 27.78L138.16 29.36C138.16 30.22 138.87 30.93 139.74 30.93L141.31 30.93L141.31 25.87L138.89 25.26C136.61 24.69 135.02 22.66 135.02 20.31C135.02 17.5 137.31 15.21 140.13 15.21L141.31 15.21L141.31 11.22L144.45 11.22L144.45 15.21L146.03 15.21C148.63 15.21 150.75 17.32 150.75 19.92L150.75 21.5Z" fill="#478BF9" fill-opacity="1.000000" fill-rule="nonzero"/>
		<path id="Vector" d="" fill="#478BF9" fill-opacity="1.000000" fill-rule="nonzero"/>
		<path id="Vector" d="M82.62 0.12L141.74 0.12C142.23 0.12 142.62 0.52 142.62 1C142.62 1.48 142.23 1.88 141.74 1.88L82.62 1.88C82.14 1.88 81.75 1.48 81.75 1C81.75 0.52 82.14 0.12 82.62 0.12Z" fill="#478BF9" fill-opacity="1.000000" fill-rule="nonzero"/>
		<path id="Vector" d="" fill="#478BF9" fill-opacity="1.000000" fill-rule="nonzero"/>
		<path id="Vector" d="M82.5 47.35L141.61 47.35C142.1 47.35 142.49 47.74 142.49 48.23C142.49 48.71 142.1 49.11 141.61 49.11L82.5 49.11C82.01 49.11 81.62 48.71 81.62 48.23C81.62 47.74 82.01 47.35 82.5 47.35Z" fill="#478BF9" fill-opacity="1.000000" fill-rule="nonzero"/>
		<path id="Vector" d="M24.49 49.06C18.21 49.06 11.94 46.67 7.16 41.89C-2.39 32.34 -2.39 16.79 7.16 7.24C11.79 2.61 17.95 0.06 24.49 0.06C31.03 0.06 37.19 2.61 41.82 7.24C51.37 16.79 51.37 32.34 41.82 41.89C37.04 46.67 30.77 49.06 24.49 49.06ZM8.45 40.61C17.29 49.45 31.68 49.45 40.53 40.61C49.37 31.76 49.37 17.37 40.53 8.53C36.24 4.24 30.55 1.88 24.48 1.88C18.42 1.88 12.73 4.24 8.44 8.53C-0.4 17.37 -0.4 31.76 8.44 40.61L8.45 40.61Z" fill="#9DADF2" fill-opacity="1.000000" fill-rule="nonzero"/>
		<path id="Vector" d="M24.17 33.73C24.25 33.94 24.46 34.07 24.67 34.07C24.75 34.07 24.82 34.05 24.89 34.02C26.62 33.3 28.19 32.18 29.44 30.78C29.64 30.55 29.62 30.2 29.39 30C29.17 29.8 28.82 29.82 28.62 30.05C27.48 31.33 26.04 32.35 24.46 33.01C24.19 33.13 24.05 33.45 24.17 33.73L24.17 33.73Z" fill="#9DADF2" fill-opacity="1.000000" fill-rule="nonzero"/>
		<path id="Vector" d="M33.83 16.09L24.69 12.44C24.56 12.39 24.41 12.39 24.28 12.44L15.14 16.09C14.93 16.18 14.8 16.38 14.8 16.6L14.8 23.15C14.81 29.19 18.62 34.65 24.29 36.73C24.35 36.75 24.42 36.76 24.48 36.76C24.55 36.76 24.61 36.75 24.67 36.73C30.34 34.64 34.16 29.19 34.17 23.15L34.17 16.6C34.17 16.38 34.04 16.18 33.83 16.09ZM33.07 23.15C33.06 28.64 29.61 33.65 24.49 35.62C19.36 33.65 15.91 28.64 15.9 23.15L15.9 16.98L24.49 13.55L33.07 16.98L33.07 23.15Z" fill="#9DADF2" fill-opacity="1.000000" fill-rule="nonzero"/>
		<path id="Vector" d="M20.67 16.95C20.54 16.9 20.39 16.9 20.25 16.95L18.07 17.82C17.86 17.91 17.73 18.11 17.73 18.33L17.73 20.65C17.73 20.96 17.98 21.2 18.28 21.2C18.58 21.2 18.83 20.96 18.83 20.65L18.83 18.71L20.66 17.98C20.79 17.92 20.9 17.82 20.96 17.68C21.02 17.54 21.02 17.4 20.96 17.26C20.9 17.12 20.8 17.02 20.67 16.95L20.67 16.95Z" fill="#9DADF2" fill-opacity="1.000000" fill-rule="nonzero"/>
		<path id="Vector" d="M38.41 10.65C34.69 6.93 29.75 4.89 24.49 4.89C19.23 4.89 14.29 6.94 10.57 10.65C2.9 18.32 2.9 30.81 10.57 38.49C14.41 42.32 19.45 44.24 24.49 44.24C29.53 44.24 34.57 42.32 38.41 38.49C46.08 30.81 46.08 18.33 38.41 10.65ZM35.68 23.15C35.7 30.13 31.24 36.24 24.59 38.35C24.53 38.37 24.46 38.37 24.39 38.35C17.74 36.24 13.28 30.13 13.29 23.15L13.29 15.43C13.29 15.3 13.37 15.18 13.49 15.13L24.37 10.78C24.41 10.76 24.45 10.76 24.49 10.76C24.53 10.76 24.57 10.76 24.61 10.78L35.48 15.13C35.61 15.18 35.68 15.3 35.68 15.43L35.68 23.15L35.68 23.15Z" fill="#9DADF2" fill-opacity="1.000000" fill-rule="nonzero"/>
	</g>
</svg>
