<svg width="36.000000" height="36.000000" viewBox="0 0 36 36" fill="none" xmlns="http://www.w3.org/2000/svg" xmlns:xlink="http://www.w3.org/1999/xlink">
	<desc>
			Created with Pixso.
	</desc>
	<defs>
		<clipPath id="clip8_324">
			<rect id="ic:round-menu" width="28.000000" height="28.000000" transform="translate(4.000000 4.000000)" fill="white" fill-opacity="0"/>
		</clipPath>
		<clipPath id="clip8_325">
			<rect id="Menu" width="36.000000" height="36.000000" fill="white" fill-opacity="0"/>
		</clipPath>
	</defs>
	<g clip-path="url(#clip8_325)">
		<g clip-path="url(#clip8_324)">
			<path id="Vector" d="M8.66 25L27.33 25C27.97 25 28.5 24.47 28.5 23.83C28.5 23.19 27.97 22.66 27.33 22.66L8.66 22.66C8.02 22.66 7.5 23.19 7.5 23.83C7.5 24.47 8.02 25 8.66 25ZM8.66 19.16L27.33 19.16C27.97 19.16 28.5 18.64 28.5 18C28.5 17.35 27.97 16.83 27.33 16.83L8.66 16.83C8.02 16.83 7.5 17.35 7.5 18C7.5 18.64 8.02 19.16 8.66 19.16ZM7.5 12.16C7.5 12.8 8.02 13.33 8.66 13.33L27.33 13.33C27.97 13.33 28.5 12.8 28.5 12.16C28.5 11.52 27.97 11 27.33 11L8.66 11C8.02 11 7.5 11.52 7.5 12.16Z" fill="#FFFFFF" fill-opacity="1.000000" fill-rule="nonzero"/>
		</g>
	</g>
</svg>
