<svg width="36.000000" height="36.000000" viewBox="0 0 36 36" fill="none" xmlns="http://www.w3.org/2000/svg" xmlns:xlink="http://www.w3.org/1999/xlink">
	<desc>
			Created with Pixso.
	</desc>
	<defs>
		<clipPath id="clip8_321">
			<rect id="Icon - Planet" width="20.000000" height="20.000000" transform="translate(8.000000 8.000000)" fill="white" fill-opacity="0"/>
		</clipPath>
		<clipPath id="clip8_322">
			<rect id="Btn. - Language" rx="17.000000" width="34.000000" height="34.000000" transform="translate(1.000000 1.000000)" fill="white" fill-opacity="0"/>
		</clipPath>
	</defs>
	<rect id="Btn. - Language" rx="17.000000" width="34.000000" height="34.000000" transform="translate(1.000000 1.000000)" fill="#110A1D" fill-opacity="1.000000"/>
	<g clip-path="url(#clip8_322)">
		<g clip-path="url(#clip8_321)">
			<path id="Union" d="M10.23 12.72C11.98 10.3 14.24 8.97 17.19 8.62C15.82 10.22 14.86 11.94 14.24 13.97C12.9 13.55 11.6 13.15 10.23 12.72ZM18.79 8.62C21.75 8.96 23.99 10.3 25.71 12.64C24.43 13.24 23.12 13.61 21.73 13.89C21.12 11.96 20.17 10.22 18.79 8.62ZM20.55 14.07C18.83 14.3 17.16 14.3 15.44 14.07C15.97 12.37 16.82 10.87 17.99 9.49C19.16 10.85 20 12.35 20.55 14.07ZM11.77 14.47C12.27 14.63 12.78 14.76 13.31 14.9C13.52 14.96 13.74 15.01 13.97 15.07C13.77 16.05 13.67 17.03 13.67 18.01C13.67 18.98 13.76 19.93 13.96 20.87C13.27 21.09 12.59 21.31 11.92 21.52L11.92 21.52C11.17 21.76 10.42 21.99 9.68 22.23C8.99 21.11 8.62 19.59 8.62 18.03C8.62 16.53 8.96 14.99 9.68 13.72C9.93 13.81 10.18 13.9 10.43 14C10.88 14.16 11.32 14.33 11.77 14.47ZM22.03 15.12C22.75 14.9 23.46 14.67 24.18 14.44C24.89 14.22 25.6 13.99 26.32 13.76C27.02 14.96 27.37 16.48 27.37 18C27.37 19.51 27.02 21.02 26.32 22.22C24.89 21.77 23.48 21.33 22.03 20.87C22.22 19.92 22.32 18.95 22.32 17.98C22.32 17.03 22.23 16.07 22.03 15.12ZM15.14 20.78C14.94 19.85 14.84 18.92 14.84 18C14.84 17.09 14.94 16.18 15.12 15.28C15.42 15.29 15.71 15.32 16 15.34C16.68 15.38 17.34 15.43 17.99 15.43C18.65 15.43 19.3 15.38 19.98 15.34C20.27 15.32 20.56 15.29 20.86 15.28C21.06 16.16 21.16 17.06 21.16 17.96C21.16 18.89 21.05 19.83 20.85 20.77C18.94 20.52 17.06 20.51 15.14 20.78ZM18 26.5C16.83 25.15 15.99 23.65 15.44 21.93C17.15 21.69 18.82 21.69 20.55 21.92C20 23.63 19.16 25.12 18 26.5ZM17.19 27.37C14.24 27.02 12 25.69 10.23 23.27C10.66 23.13 11.09 23 11.52 22.87L11.52 22.87C12.43 22.58 13.32 22.31 14.24 22.03C14.86 24.03 15.81 25.77 17.19 27.37ZM25.71 23.34C24.01 25.69 21.75 27.01 18.8 27.37C20.16 25.78 21.13 24.05 21.72 22.1C23.1 22.37 24.4 22.76 25.71 23.34Z" fill="#9DADF2" fill-opacity="1.000000" fill-rule="evenodd"/>
		</g>
	</g>
	<rect id="Btn. - Language" rx="17.000000" width="34.000000" height="34.000000" transform="translate(1.000000 1.000000)" stroke="#9DADF2" stroke-opacity="1.000000" stroke-width="2.000000"/>
</svg>
