<svg width="15.000000" height="15.000000" viewBox="0 0 15 15" fill="none" xmlns="http://www.w3.org/2000/svg" xmlns:xlink="http://www.w3.org/1999/xlink">
	<desc>
			Created with Pixso.
	</desc>
	<defs/>
	<path id="Union" d="M0.78 2.78C2.18 0.84 3.99 -0.22 6.35 -0.5C5.26 0.78 4.49 2.15 3.99 3.77C2.92 3.44 1.88 3.12 0.78 2.78ZM7.63 -0.5C10 -0.23 11.79 0.84 13.16 2.71C12.14 3.19 11.09 3.49 9.98 3.71C9.5 2.16 8.74 0.78 7.63 -0.5ZM9.04 3.86C7.67 4.04 6.33 4.04 4.95 3.86C5.38 2.49 6.06 1.3 6.99 0.19C7.92 1.28 8.6 2.48 9.04 3.86ZM2.01 4.18C2.42 4.3 2.83 4.41 3.25 4.52C3.42 4.56 3.59 4.61 3.77 4.66C3.61 5.44 3.53 6.23 3.53 7.01C3.53 7.78 3.61 8.54 3.77 9.3C3.21 9.47 2.67 9.64 2.13 9.81L2.13 9.81C1.53 10 0.94 10.19 0.34 10.38C-0.21 9.49 -0.5 8.27 -0.5 7.02C-0.5 5.82 -0.23 4.59 0.35 3.57C0.55 3.65 0.75 3.72 0.95 3.8C1.3 3.93 1.66 4.06 2.01 4.18ZM10.22 4.7C10.8 4.52 11.37 4.33 11.94 4.15C12.51 3.97 13.08 3.79 13.66 3.61C14.21 4.57 14.5 5.78 14.5 7C14.5 8.21 14.22 9.41 13.66 10.37C12.51 10.02 11.38 9.66 10.22 9.29C10.38 8.53 10.46 7.76 10.46 6.98C10.46 6.22 10.38 5.46 10.22 4.7ZM4.71 9.22C4.55 8.48 4.47 7.74 4.47 7C4.47 6.27 4.55 5.55 4.7 4.82C4.94 4.83 5.17 4.85 5.4 4.87C5.94 4.91 6.47 4.94 6.99 4.94C7.52 4.94 8.04 4.91 8.58 4.87C8.81 4.85 9.05 4.83 9.29 4.82C9.45 5.53 9.52 6.24 9.52 6.97C9.52 7.71 9.44 8.46 9.28 9.22C7.75 9.02 6.25 9.01 4.71 9.22ZM7 13.8C6.07 12.72 5.39 11.52 4.95 10.14C6.32 9.95 7.65 9.95 9.04 10.13C8.6 11.5 7.93 12.7 7 13.8ZM6.35 14.5C3.99 14.21 2.2 13.15 0.78 11.21C1.13 11.1 1.47 11 1.82 10.89L1.82 10.89C2.55 10.67 3.26 10.45 3.99 10.22C4.49 11.83 5.25 13.21 6.35 14.5ZM13.16 11.27C11.81 13.15 10 14.21 7.64 14.5C8.73 13.22 9.5 11.84 9.98 10.28C11.08 10.49 12.12 10.81 13.16 11.27Z" fill="#9DADF2" fill-opacity="1.000000" fill-rule="evenodd"/>
</svg>
