<svg width="40.000000" height="40.000000" viewBox="0 0 40 40" fill="none" xmlns="http://www.w3.org/2000/svg" xmlns:xlink="http://www.w3.org/1999/xlink">
	<desc>
			Created with Pixso.
	</desc>
	<defs>
		<filter id="filter_5_498_dd" x="0.000000" y="0.000000" width="40.000000" height="40.000000" filterUnits="userSpaceOnUse" color-interpolation-filters="sRGB">
			<feFlood flood-opacity="0" result="BackgroundImageFix"/>
			<feColorMatrix in="SourceAlpha" type="matrix" values="0 0 0 0 0 0 0 0 0 0 0 0 0 0 0 0 0 0 127 0" result="hardAlpha"/>
			<feOffset dx="0" dy="4"/>
			<feGaussianBlur stdDeviation="1.33333"/>
			<feComposite in2="hardAlpha" operator="out" k2="-1" k3="1"/>
			<feColorMatrix type="matrix" values="0 0 0 0 0 0 0 0 0 0 0 0 0 0 0 0 0 0 0.25 0"/>
			<feBlend mode="normal" in2="BackgroundImageFix" result="effect_dropShadow_1"/>
			<feBlend mode="normal" in="SourceGraphic" in2="effect_dropShadow_1" result="shape"/>
		</filter>
		<clipPath id="clip5_497">
			<rect id="VK" width="16.000000" height="16.000000" transform="translate(12.000000 8.000000)" fill="white" fill-opacity="0"/>
		</clipPath>
		<clipPath id="clip5_498">
			<rect id="Buttons - Socials" width="32.000000" height="32.000000" transform="translate(4.000000 0.000000)" fill="white" fill-opacity="0"/>
		</clipPath>
	</defs>
	<g filter="url(#filter_5_498_dd)">
		<g clip-path="url(#clip5_498)">
			<path id="Union" d="M20 32C11.1765 32 4 24.8201 4 16C4 7.17993 11.1799 0 20 0C28.8201 0 36 7.17993 36 16C36 24.8201 28.8201 32 20 32ZM8.96802 5.94336C6.54492 8.59912 5.06543 12.1299 5.06543 16C5.06543 19.8696 6.54468 23.3999 8.96704 26.0554L10.1545 24.8679C8.03809 22.5198 6.75 19.4104 6.75 16C6.75 12.5889 8.03857 9.47925 10.1555 7.13086L8.96802 5.94336ZM9.94263 4.96875L11.1301 6.15625C13.4785 4.03882 16.5886 2.75 20 2.75C23.4106 2.75 26.52 4.03833 28.8682 6.15479L30.0559 4.96729C27.4001 2.54468 23.8696 1.06543 20 1.06543C16.1296 1.06543 12.5984 2.54517 9.94263 4.96875ZM34.9346 16C34.9346 19.8713 33.4541 23.4031 31.0295 26.0593L29.842 24.8718C31.9604 22.5232 33.25 19.4124 33.25 16C33.25 12.5881 31.9607 9.47778 29.8428 7.12915L31.0305 5.94165C33.4543 8.59766 34.9346 12.1292 34.9346 16ZM11.1289 25.8425L9.94141 27.0303C12.5974 29.4543 16.1289 30.9343 20 30.9343C23.8691 30.9343 27.3994 29.4556 30.0549 27.0334L28.8674 25.8459C26.5193 27.9622 23.4102 29.25 20 29.25C16.5881 29.25 13.4775 27.9607 11.1289 25.8425Z" clip-rule="evenodd" fill="#478BF9" fill-opacity="1.000000" fill-rule="evenodd"/>
			<g clip-path="url(#clip5_497)">
				<path id="Vector" d="M13.57 12.39C13.46 12.39 13.37 12.45 13.31 12.54C13.25 12.62 13.23 12.74 13.26 12.84C13.27 12.88 13.29 12.92 13.3 12.96C13.7 14.26 14.33 16.32 15.47 17.99C16.66 19.73 18.41 21.09 21.03 20.74C21.19 20.72 21.31 20.57 21.31 20.4L21.31 18.57C21.74 18.71 22.06 18.97 22.36 19.29C22.51 19.45 22.66 19.63 22.81 19.81C22.85 19.86 22.89 19.91 22.93 19.95C23.12 20.19 23.34 20.43 23.58 20.66C23.64 20.71 23.72 20.74 23.79 20.74L26.12 20.74C26.23 20.74 26.33 20.68 26.39 20.59C26.45 20.49 26.46 20.37 26.42 20.26C25.86 18.94 25.04 17.75 24.01 16.79C24.04 16.74 24.07 16.7 24.1 16.66C24.86 15.58 25.65 14.45 26.05 12.82C26.08 12.72 26.06 12.61 26 12.53C25.93 12.44 25.84 12.39 25.74 12.39L23.62 12.39C23.51 12.39 23.41 12.45 23.35 12.55C23.14 12.89 22.95 13.25 22.77 13.6C22.73 13.67 22.7 13.74 22.66 13.81C22.52 14.09 22.38 14.36 22.23 14.63C21.97 15.1 21.68 15.54 21.31 15.92L21.31 12.74C21.31 12.55 21.17 12.39 20.99 12.39L17.91 12.39C17.79 12.39 17.68 12.47 17.62 12.59C17.57 12.71 17.58 12.85 17.66 12.95L18.33 13.82L18.33 16.64C18.23 16.58 18.14 16.5 18.04 16.4C17.82 16.16 17.6 15.83 17.37 15.42C17.06 14.85 16.76 14.18 16.46 13.48C16.33 13.19 16.2 12.89 16.07 12.59C16.02 12.47 15.9 12.39 15.78 12.39L13.57 12.39Z" fill="#110A1D" fill-opacity="1.000000" fill-rule="evenodd"/>
			</g>
		</g>
	</g>
</svg>
