<svg width="32.000000" height="32.000000" viewBox="0 0 32 32" fill="none" xmlns="http://www.w3.org/2000/svg" xmlns:xlink="http://www.w3.org/1999/xlink">
	<desc>
			Created with Pixso.
	</desc>
	<defs>
		<clipPath id="clip5_459">
			<rect id="YouTube" width="16.000000" height="16.000000" transform="translate(8.000000 8.000000)" fill="white" fill-opacity="0"/>
		</clipPath>
		<clipPath id="clip5_460">
			<rect id="Buttons - Socials" width="32.000000" height="32.000000" fill="white" fill-opacity="0"/>
		</clipPath>
		<linearGradient x1="31.999996" y1="-0.000011" x2="0.000000" y2="31.999985" id="paint_linear_5_455_0" gradientUnits="userSpaceOnUse">
			<stop stop-color="#478BF9"/>
			<stop offset="1.000000" stop-color="#9DADF2"/>
		</linearGradient>
	</defs>
	<g clip-path="url(#clip5_460)">
		<path id="Union" d="M16 32C7.17651 32 0 24.8201 0 16C0 7.17993 7.17993 0 16 0C24.8201 0 32 7.17993 32 16C32 24.8201 24.8201 32 16 32ZM4.96777 5.9436C2.54492 8.59937 1.06543 12.1301 1.06543 16C1.06543 19.8696 2.54468 23.3999 4.96704 26.0554L6.15454 24.8679C4.03809 22.5198 2.75 19.4104 2.75 16C2.75 12.5891 4.03857 9.47949 6.15527 7.1311L4.96777 5.9436ZM5.94238 4.96899L7.12988 6.15649C9.47827 4.03906 12.5884 2.75 16 2.75C19.4106 2.75 22.52 4.03833 24.8682 6.15479L26.0559 4.96729C23.4001 2.54468 19.8696 1.06543 16 1.06543C12.1294 1.06543 8.59814 2.54541 5.94238 4.96899ZM30.9346 16C30.9346 19.8713 29.4541 23.4031 27.0295 26.0593L25.842 24.8716C27.9604 22.5232 29.25 19.4124 29.25 16C29.25 12.5881 27.9607 9.47778 25.8428 7.12915L27.0305 5.94165C29.4543 8.59766 30.9346 12.1292 30.9346 16ZM7.12891 25.8425L5.94141 27.0303C8.59741 29.4543 12.1289 30.9343 16 30.9343C19.8691 30.9343 23.3994 29.4556 26.0549 27.0334L24.8674 25.8459C22.5193 27.9622 19.4102 29.25 16 29.25C12.5881 29.25 9.47754 27.9607 7.12891 25.8425Z" clip-rule="evenodd" fill="url(#paint_linear_5_455_0)" fill-opacity="1.000000" fill-rule="evenodd"/>
		<g clip-path="url(#clip5_459)">
			<path id="Vector" d="M14.66 18L18.12 16L14.66 14L14.66 18ZM22.37 12.78C22.46 13.09 22.52 13.51 22.56 14.04C22.6 14.58 22.62 15.04 22.62 15.44L22.66 16C22.66 17.46 22.56 18.53 22.37 19.22C22.2 19.82 21.82 20.2 21.22 20.37C20.9 20.46 20.33 20.52 19.45 20.56C18.58 20.6 17.79 20.62 17.06 20.62L16 20.66C13.2 20.66 11.46 20.56 10.78 20.37C10.18 20.2 9.79 19.82 9.62 19.22C9.54 18.9 9.48 18.48 9.44 17.95C9.39 17.42 9.37 16.96 9.37 16.56L9.33 16C9.33 14.54 9.44 13.46 9.62 12.78C9.79 12.18 10.18 11.79 10.78 11.62C11.09 11.54 11.66 11.48 12.54 11.44C13.41 11.39 14.2 11.37 14.94 11.37L16 11.33C18.79 11.33 20.53 11.44 21.22 11.62C21.82 11.79 22.2 12.18 22.37 12.78Z" fill="#1E1231" fill-opacity="1.000000" fill-rule="nonzero"/>
		</g>
	</g>
</svg>
